<svg width="16" height="16" viewBox="0 0 16 16" fill="none" xmlns="http://www.w3.org/2000/svg">
<g id="pimcore-main-icon-asset">
<path id="Vector" d="M14.4 14.4H1.59999C1.01333 14.4 0.533325 13.92 0.533325 13.3333V3.73333C0.533325 3.14666 1.01333 2.66666 1.59999 2.66666H4.05332L6.02666 0.693325C6.13333 0.586659 6.23999 0.533325 6.39999 0.533325H9.59999C9.75999 0.533325 9.86666 0.586659 9.97332 0.693325L11.9467 2.66666H14.4C14.9867 2.66666 15.4667 3.14666 15.4667 3.73333V13.3333C15.4667 13.92 14.9867 14.4 14.4 14.4ZM2.02666 13.3333H13.9733C14.1867 13.3333 14.4 13.12 14.4 12.9067V4.15999C14.4 3.94666 14.1867 3.73333 13.9733 3.73333H11.7333C11.5733 3.73333 11.4667 3.67999 11.36 3.57332L9.49332 1.70666C9.43999 1.65333 9.33332 1.59999 9.27999 1.59999H6.77332C6.66666 1.59999 6.61333 1.65333 6.55999 1.70666L4.63999 3.57332C4.53332 3.67999 4.42666 3.73333 4.26666 3.73333H1.86666C1.70666 3.73333 1.59999 3.83999 1.59999 3.99999V12.9067C1.59999 13.12 1.81333 13.3333 2.02666 13.3333Z" fill="currentColor"/>
<path id="Vector_2" d="M8.00006 11.7334C5.92006 11.7334 4.26672 10.0801 4.26672 8.00006C4.26672 5.92006 5.92006 4.26672 8.00006 4.26672C10.0801 4.26672 11.7334 5.92006 11.7334 8.00006C11.7334 10.0801 10.0801 11.7334 8.00006 11.7334ZM8.00006 5.33339C6.50672 5.33339 5.33339 6.50672 5.33339 8.00006C5.33339 9.49339 6.50672 10.6667 8.00006 10.6667C9.49339 10.6667 10.6667 9.49339 10.6667 8.00006C10.6667 6.50672 9.49339 5.33339 8.00006 5.33339Z" fill="currentColor"/>
</g>
</svg>
