<svg xmlns="http://www.w3.org/2000/svg" width="16" height="16" viewBox="0 0 16 16" fill="none">
    <path d="M11.3333 5.33333V6.33333C11.3333 6.53333 11.2 6.66666 11 6.66666H10.3333C10.1333 6.66666 10 6.53333 10 6.33333V5.33333H7.33334V2.66666H6.8H4.00001V10.6667H6.66667C7.06667 10.6667 7.33334 10.9333 7.33334 11.3333C7.33334 11.7333 7.06667 12 6.66667 12H4.00001C3.26667 12 2.66667 11.4 2.66667 10.6667V2.66666C2.66667 1.93333 3.26667 1.33333 4.00001 1.33333H7.33334L11.3333 5.33333ZM13.2 12.0667L14.1333 12.6C14.2667 12.6667 14.3333 12.8667 14.2667 13.0667L13.9333 13.6667C13.8667 13.8 13.6667 13.8667 13.4667 13.8L12.5333 13.2667C12.2 13.6 11.8 13.8667 11.2667 14V15.0667C11.2667 15.2667 11.1333 15.4 10.9333 15.4H10.2667C10.0667 15.4 9.93334 15.2667 9.93334 15.0667V14C9.46667 13.8667 9.00001 13.6667 8.66667 13.2667L7.73334 13.8C7.60001 13.8667 7.4 13.8667 7.26667 13.6667L6.93334 13.0667C6.86667 12.9333 6.86667 12.7333 7.06667 12.6L8.00001 12.0667C8.06667 11.8 8.00001 11.6 8.00001 11.3333C8.00001 11.0667 8.06667 10.8667 8.13334 10.6L7.20001 10.0667C7.06667 10 7.00001 9.79999 7.06667 9.59999L7.40001 9C7.46667 8.86666 7.66667 8.8 7.86667 8.86666L8.8 9.4C9.13334 9.06666 9.53334 8.79999 10.0667 8.66666V7.59999C10.0667 7.39999 10.2 7.26666 10.4 7.26666H11.0667C11.2667 7.26666 11.4 7.39999 11.4 7.59999V8.66666C11.8667 8.79999 12.3333 9 12.6667 9.4L13.6 8.86666C13.7333 8.8 13.9333 8.79999 14.0667 9L14.4 9.59999C14.4667 9.73333 14.4667 9.93333 14.2667 10.0667L13.3333 10.6C13.4 10.8 13.4667 11.0667 13.4667 11.3333C13.4667 11.6 13.2667 11.8 13.2 12.0667ZM12 11.3333C12 10.6 11.4 10 10.6667 10C9.93334 10 9.33334 10.6 9.33334 11.3333C9.33334 12.0667 9.93334 12.6667 10.6667 12.6667C11.4 12.6667 12 12.0667 12 11.3333Z" fill="currentColor"/>
</svg>
