<svg width="14" height="14" viewBox="0 0 14 14" fill="none" xmlns="http://www.w3.org/2000/svg">
  <path d="M7.00001 7.58333C7.32218 7.58333 7.58334 7.32216 7.58334 7C7.58334 6.67783 7.32218 6.41666 7.00001 6.41666C6.67784 6.41666 6.41668 6.67783 6.41668 7C6.41668 7.32216 6.67784 7.58333 7.00001 7.58333Z" fill="currentColor"/>
  <path d="M11.0833 7.58333C11.4055 7.58333 11.6667 7.32216 11.6667 7C11.6667 6.67783 11.4055 6.41666 11.0833 6.41666C10.7612 6.41666 10.5 6.67783 10.5 7C10.5 7.32216 10.7612 7.58333 11.0833 7.58333Z" fill="currentColor"/>
  <path d="M2.91668 7.58333C3.23884 7.58333 3.50001 7.32216 3.50001 7C3.50001 6.67783 3.23884 6.41666 2.91668 6.41666C2.59451 6.41666 2.33334 6.67783 2.33334 7C2.33334 7.32216 2.59451 7.58333 2.91668 7.58333Z" fill="currentColor"/>
  <path d="M7.00001 7.58333C7.32218 7.58333 7.58334 7.32216 7.58334 7C7.58334 6.67783 7.32218 6.41666 7.00001 6.41666C6.67784 6.41666 6.41668 6.67783 6.41668 7C6.41668 7.32216 6.67784 7.58333 7.00001 7.58333Z" stroke="currentColor" stroke-width="1.5" stroke-linecap="round" stroke-linejoin="round"/>
  <path d="M11.0833 7.58333C11.4055 7.58333 11.6667 7.32216 11.6667 7C11.6667 6.67783 11.4055 6.41666 11.0833 6.41666C10.7612 6.41666 10.5 6.67783 10.5 7C10.5 7.32216 10.7612 7.58333 11.0833 7.58333Z" stroke="currentColor" stroke-width="1.5" stroke-linecap="round" stroke-linejoin="round"/>
  <path d="M2.91668 7.58333C3.23884 7.58333 3.50001 7.32216 3.50001 7C3.50001 6.67783 3.23884 6.41666 2.91668 6.41666C2.59451 6.41666 2.33334 6.67783 2.33334 7C2.33334 7.32216 2.59451 7.58333 2.91668 7.58333Z" stroke="currentColor" stroke-width="1.5" stroke-linecap="round" stroke-linejoin="round"/>
</svg>