<svg xmlns="http://www.w3.org/2000/svg" width="12" height="14" viewBox="0 0 12 14" fill="none">
    <path d="M6.66668 9H5.33334V9.66667H6.66668V9Z" fill="#4D4169"/>
    <path d="M6.66668 10.3333H5.33334V11H6.66668V10.3333Z" fill="#4D4169"/>
    <path d="M4.00001 9H2.66667V9.66667H4.00001V9Z" fill="#4D4169"/>
    <path d="M4.00001 7.66666H2.66667V8.33332H4.00001V7.66666Z" fill="#4D4169"/>
    <path d="M4.00001 10.3333H2.66667V11H4.00001V10.3333Z" fill="#4D4169"/>
    <path d="M6.66668 7.66666H5.33334V8.33332H6.66668V7.66666Z" fill="#4D4169"/>
    <path d="M4.00001 6.33333H2.66667V6.99999H4.00001V6.33333Z" fill="#4D4169"/>
    <path d="M9.33333 9H8V9.66667H9.33333V9Z" fill="#4D4169"/>
    <path d="M6.66668 6.33333H5.33334V6.99999H6.66668V6.33333Z" fill="#4D4169"/>
    <path d="M7.33334 0.333328H2.00001C1.26667 0.333328 0.666672 0.933328 0.666672 1.66666V12.3333C0.666672 13.0667 1.26667 13.6667 2.00001 13.6667H10C10.7333 13.6667 11.3333 13.0667 11.3333 12.3333V4.33333L7.33334 0.333328ZM10 12.3333H2.00001V1.66666H6.8H7.33334V4.33333H10V12.3333Z" fill="#4D4169"/>
    <path d="M9.33333 10.3333H8V11H9.33333V10.3333Z" fill="#4D4169"/>
    <path d="M9.33333 7.66666H8V8.33332H9.33333V7.66666Z" fill="#4D4169"/>
    <path d="M9.33333 6.33333H8V6.99999H9.33333V6.33333Z" fill="#4D4169"/>
</svg>
