<svg width="16" height="16" viewBox="0 0 16 16" fill="none" xmlns="http://www.w3.org/2000/svg">
<g id="file-check-02">
<path id="Icon" d="M13.3333 8.33334V4.53334C13.3333 3.41324 13.3333 2.85319 13.1153 2.42536C12.9236 2.04904 12.6176 1.74308 12.2413 1.55133C11.8135 1.33334 11.2534 1.33334 10.1333 1.33334H5.86666C4.74655 1.33334 4.1865 1.33334 3.75868 1.55133C3.38235 1.74308 3.07639 2.04904 2.88464 2.42536C2.66666 2.85319 2.66666 3.41324 2.66666 4.53334V11.4667C2.66666 12.5868 2.66666 13.1468 2.88464 13.5747C3.07639 13.951 3.38235 14.2569 3.75868 14.4487C4.1865 14.6667 4.74655 14.6667 5.86666 14.6667H7.99999M9.33332 7.33334H5.33332M6.66666 10H5.33332M10.6667 4.66668H5.33332M9.66666 12.6667L11 14L14 11" stroke="currentColor" stroke-width="1.5" stroke-linecap="round" stroke-linejoin="round"/>
</g>
</svg>
