<svg width="16" height="16" viewBox="0 0 16 16" fill="none" xmlns="http://www.w3.org/2000/svg">
<g id="file-x-03">
<path id="Icon" d="M9.33332 1.51303V4.26673C9.33332 4.64009 9.33332 4.82678 9.40599 4.96938C9.4699 5.09483 9.57189 5.19681 9.69733 5.26073C9.83994 5.33339 10.0266 5.33339 10.4 5.33339H13.1537M6.33332 8.00001L9.66666 11.3333M9.66666 8.00001L6.33332 11.3333M9.33332 1.33334H5.86666C4.74655 1.33334 4.1865 1.33334 3.75868 1.55133C3.38235 1.74308 3.07639 2.04904 2.88464 2.42536C2.66666 2.85319 2.66666 3.41324 2.66666 4.53334V11.4667C2.66666 12.5868 2.66666 13.1468 2.88464 13.5747C3.07639 13.951 3.38235 14.2569 3.75868 14.4487C4.1865 14.6667 4.74655 14.6667 5.86666 14.6667H10.1333C11.2534 14.6667 11.8135 14.6667 12.2413 14.4487C12.6176 14.2569 12.9236 13.951 13.1153 13.5747C13.3333 13.1468 13.3333 12.5868 13.3333 11.4667V5.33334L9.33332 1.33334Z" stroke="#404655" stroke-width="1.5" stroke-linecap="round" stroke-linejoin="round"/>
</g>
</svg>
