<svg width="16" height="16" viewBox="0 0 16 16" fill="none" xmlns="http://www.w3.org/2000/svg">
<g id="file-question-02">
<path id="Icon" d="M13.3333 6.33334V4.53334C13.3333 3.41324 13.3333 2.85319 13.1153 2.42536C12.9236 2.04904 12.6176 1.74308 12.2413 1.55133C11.8135 1.33334 11.2534 1.33334 10.1333 1.33334H5.86666C4.74655 1.33334 4.1865 1.33334 3.75868 1.55133C3.38235 1.74308 3.07639 2.04904 2.88464 2.42536C2.66666 2.85319 2.66666 3.41324 2.66666 4.53334V11.4667C2.66666 12.5868 2.66666 13.1468 2.88464 13.5747C3.07639 13.951 3.38235 14.2569 3.75868 14.4487C4.1865 14.6667 4.74655 14.6667 5.86666 14.6667H9.33332M9.33332 7.33334H5.33332M6.66666 10H5.33332M10.6667 4.66668H5.33332M11 10.0015C11.1175 9.66758 11.3493 9.38601 11.6545 9.20666C11.9597 9.02731 12.3185 8.96175 12.6673 9.02159C13.0162 9.08143 13.3327 9.26281 13.5606 9.53361C13.7886 9.80441 13.9133 10.1472 13.9128 10.5011C13.9128 11.5004 12.4139 12 12.4139 12M12.4333 14H12.4399" stroke="#404655" stroke-width="1.5" stroke-linecap="round" stroke-linejoin="round"/>
</g>
</svg>
