<svg width="16" height="16" viewBox="0 0 16 16" fill="none" xmlns="http://www.w3.org/2000/svg">
<g id="presentation-chart-01">
<path id="Icon" d="M8.00001 10.6667V14M8.00001 10.6667L12 14M8.00001 10.6667L4.00001 14M14 2V7.46667C14 8.58677 14 9.14682 13.782 9.57465C13.5903 9.95097 13.2843 10.2569 12.908 10.4487C12.4802 10.6667 11.9201 10.6667 10.8 10.6667H5.20001C4.07991 10.6667 3.51985 10.6667 3.09203 10.4487C2.71571 10.2569 2.40974 9.95097 2.218 9.57465C2.00001 9.14682 2.00001 8.58677 2.00001 7.46667V2M5.33334 6V8M8.00001 4.66667V8M10.6667 7.33333V8M14.6667 2H1.33334" stroke="currentColor" stroke-width="1.5" stroke-linecap="round" stroke-linejoin="round"/>
</g>
</svg>
