<svg xmlns="http://www.w3.org/2000/svg" width="16" height="16" viewBox="0 0 16 16" fill="none">
    <path d="M14.5 3.5H12V2.625C12 2.55625 11.9438 2.5 11.875 2.5H11C10.9312 2.5 10.875 2.55625 10.875 2.625V3.5H8.5625V2.625C8.5625 2.55625 8.50625 2.5 8.4375 2.5H7.5625C7.49375 2.5 7.4375 2.55625 7.4375 2.625V3.5H5.125V2.625C5.125 2.55625 5.06875 2.5 5 2.5H4.125C4.05625 2.5 4 2.55625 4 2.625V3.5H1.5C1.22344 3.5 1 3.72344 1 4V13C1 13.2766 1.22344 13.5 1.5 13.5H14.5C14.7766 13.5 15 13.2766 15 13V4C15 3.72344 14.7766 3.5 14.5 3.5ZM13.875 12.375H2.125V4.625H4V5.5C4 5.56875 4.05625 5.625 4.125 5.625H5C5.06875 5.625 5.125 5.56875 5.125 5.5V4.625H7.4375V5.5C7.4375 5.56875 7.49375 5.625 7.5625 5.625H8.4375C8.50625 5.625 8.5625 5.56875 8.5625 5.5V4.625H10.875V5.5C10.875 5.56875 10.9312 5.625 11 5.625H11.875C11.9438 5.625 12 5.56875 12 5.5V4.625H13.875V12.375ZM6.5 7.75H3.625C3.55625 7.75 3.5 7.80625 3.5 7.875V8.625C3.5 8.69375 3.55625 8.75 3.625 8.75H6.5C6.56875 8.75 6.625 8.69375 6.625 8.625V7.875C6.625 7.80625 6.56875 7.75 6.5 7.75ZM6.5 9.875H3.625C3.55625 9.875 3.5 9.93125 3.5 10V10.75C3.5 10.8188 3.55625 10.875 3.625 10.875H6.5C6.56875 10.875 6.625 10.8188 6.625 10.75V10C6.625 9.93125 6.56875 9.875 6.5 9.875ZM11.3156 7.10313L9.69687 9.34844L8.87187 8.20625C8.825 8.14062 8.75 8.10312 8.67031 8.10312H7.8125C7.71094 8.10312 7.65156 8.21875 7.71094 8.30156L9.49375 10.7734C9.51677 10.8054 9.54704 10.8314 9.58209 10.8493C9.61713 10.8673 9.65594 10.8766 9.69531 10.8766C9.73468 10.8766 9.77349 10.8673 9.80854 10.8493C9.84358 10.8314 9.87386 10.8054 9.89688 10.7734L12.475 7.2C12.5344 7.11719 12.475 7.00156 12.3734 7.00156H11.5156C11.4375 7 11.3625 7.03906 11.3156 7.10313Z" fill="#4D4169"/>
</svg>
