<svg xmlns="http://www.w3.org/2000/svg" width="16" height="16" viewBox="0 0 16 16" fill="none">
    <path d="M10.625 4C9.86719 4 9.25 4.61719 9.25 5.375C9.25 6.13281 9.86719 6.75 10.625 6.75C11.3828 6.75 12 6.13281 12 5.375C12 4.61719 11.3828 4 10.625 4ZM10.625 5.875C10.3484 5.875 10.125 5.65156 10.125 5.375C10.125 5.09844 10.3484 4.875 10.625 4.875C10.9016 4.875 11.125 5.09844 11.125 5.375C11.125 5.65156 10.9016 5.875 10.625 5.875Z" fill="currentColor"/>
    <path d="M14.6569 7.16875L14.1944 2.28437C14.1709 2.03125 13.9694 1.83125 13.7162 1.80625L8.83187 1.34375H8.82562C8.77562 1.34375 8.73656 1.35938 8.70687 1.38906L1.38968 8.70625C1.3752 8.72071 1.36371 8.73788 1.35587 8.75678C1.34802 8.77568 1.34399 8.79594 1.34399 8.81641C1.34399 8.83687 1.34802 8.85713 1.35587 8.87603C1.36371 8.89494 1.3752 8.91211 1.38968 8.92656L7.07406 14.6109C7.08861 14.6255 7.10591 14.637 7.12496 14.6448C7.14401 14.6526 7.16442 14.6565 7.185 14.6562C7.22718 14.6562 7.26625 14.6406 7.29593 14.6109L14.6131 7.29375C14.6444 7.26094 14.66 7.21562 14.6569 7.16875ZM7.18343 13.0422L2.95843 8.81719L9.20375 2.57188L13.0631 2.9375L13.4287 6.79688L7.18343 13.0422Z" fill="currentColor"/>
</svg>
