<svg width="16" height="16" viewBox="0 0 16 16" fill="none" xmlns="http://www.w3.org/2000/svg">
  <g clip-path="url(#clip0_1227_43718)">
    <path d="M13.9333 7.33366C13.6 4.53366 11.4 2.33366 8.66663 2.06699V0.666992H7.33329V2.06699C4.53329 2.33366 2.33329 4.53366 2.06663 7.33366H0.666626V8.66699H2.06663C2.39996 11.467 4.59996 13.667 7.33329 13.9337V15.3337H8.66663V13.9337C11.4666 13.6003 13.6666 11.4003 13.9333 8.66699H15.3333V7.33366H13.9333ZM7.99996 12.667C5.39996 12.667 3.33329 10.6003 3.33329 8.00033C3.33329 5.40033 5.39996 3.33366 7.99996 3.33366C10.6 3.33366 12.6666 5.40033 12.6666 8.00033C12.6666 10.6003 10.6 12.667 7.99996 12.667ZM10.6666 8.00033C10.6666 9.46699 9.46663 10.667 7.99996 10.667C6.53329 10.667 5.33329 9.46699 5.33329 8.00033C5.33329 6.53366 6.53329 5.33366 7.99996 5.33366C9.46663 5.33366 10.6666 6.53366 10.6666 8.00033Z" fill="black" fill-opacity="0.88"/>
  </g>
  <defs>
    <clipPath id="clip0_1227_43718">
      <rect width="16" height="16" fill="white"/>
    </clipPath>
  </defs>
</svg>