<svg width="16" height="16" viewBox="0 0 16 16" fill="none" xmlns="http://www.w3.org/2000/svg">
<g id="video-recorder">
<g id="Icon">
<path d="M14.6667 5.95426C14.6667 5.55038 14.6667 5.34844 14.5868 5.25493C14.5175 5.1738 14.4136 5.13074 14.3072 5.13911C14.1846 5.14876 14.0418 5.29155 13.7562 5.57713L11.3333 8.00001L13.7562 10.4229C14.0418 10.7085 14.1846 10.8513 14.3072 10.8609C14.4136 10.8693 14.5175 10.8262 14.5868 10.7451C14.6667 10.6516 14.6667 10.4496 14.6667 10.0458V5.95426Z" stroke="#404655" stroke-width="1.5" stroke-linecap="round" stroke-linejoin="round"/>
<path d="M1.33334 6.53334C1.33334 5.41324 1.33334 4.85319 1.55133 4.42536C1.74308 4.04904 2.04904 3.74308 2.42536 3.55133C2.85319 3.33334 3.41324 3.33334 4.53334 3.33334H8.13334C9.25345 3.33334 9.8135 3.33334 10.2413 3.55133C10.6176 3.74308 10.9236 4.04904 11.1154 4.42536C11.3333 4.85319 11.3333 5.41324 11.3333 6.53334V9.46668C11.3333 10.5868 11.3333 11.1468 11.1154 11.5747C10.9236 11.951 10.6176 12.2569 10.2413 12.4487C9.8135 12.6667 9.25345 12.6667 8.13334 12.6667H4.53334C3.41324 12.6667 2.85319 12.6667 2.42536 12.4487C2.04904 12.2569 1.74308 11.951 1.55133 11.5747C1.33334 11.1468 1.33334 10.5868 1.33334 9.46668V6.53334Z" stroke="#404655" stroke-width="1.5" stroke-linecap="round" stroke-linejoin="round"/>
</g>
</g>
</svg>
