<svg xmlns="http://www.w3.org/2000/svg" width="16" height="16" viewBox="0 0 16 16" fill="none">
    <path d="M12 2.66666V13.3333H4V2.66666H12ZM12 1.33333H4C3.26667 1.33333 2.66667 1.93333 2.66667 2.66666V13.3333C2.66667 14.0667 3.26667 14.6667 4 14.6667H12C12.7333 14.6667 13.3333 14.0667 13.3333 13.3333V2.66666C13.3333 1.93333 12.7333 1.33333 12 1.33333ZM6.66667 4.66666H5.33333V6H6.66667V4.66666ZM7.33333 6H10.6667V4.66666H7.33333V6ZM6.66667 7.33333H5.33333V8.66666H6.66667V7.33333ZM7.33333 8.66666H10.6667V7.33333H7.33333V8.66666ZM6.66667 10H5.33333V11.3333H6.66667V10ZM7.33333 11.3333H10.6667V10H7.33333V11.3333Z" fill="currentColor"/>
</svg>
