<svg xmlns="http://www.w3.org/2000/svg" width="12" height="14" viewBox="0 0 12 14" fill="none">
    <path d="M6.66671 9H5.33337V9.66667H6.66671V9Z" fill="#4D4169"/>
    <path d="M6.66671 10.3335H5.33337V11.0002H6.66671V10.3335Z" fill="#4D4169"/>
    <path d="M4.00002 9H2.66669V9.66667H4.00002V9Z" fill="#4D4169"/>
    <path d="M4.00002 7.66699H2.66669V8.33366H4.00002V7.66699Z" fill="#4D4169"/>
    <path d="M4.00002 10.3335H2.66669V11.0002H4.00002V10.3335Z" fill="#4D4169"/>
    <path d="M6.66671 7.66699H5.33337V8.33366H6.66671V7.66699Z" fill="#4D4169"/>
    <path d="M4.00002 6.3335H2.66669V7.00016H4.00002V6.3335Z" fill="#4D4169"/>
    <path d="M9.33333 9H8V9.66667H9.33333V9Z" fill="#4D4169"/>
    <path d="M6.66671 6.3335H5.33337V7.00016H6.66671V6.3335Z" fill="#4D4169"/>
    <path d="M7.33335 0.333496H2.00002C1.26669 0.333496 0.666687 0.933496 0.666687 1.66683V12.3335C0.666687 13.0668 1.26669 13.6668 2.00002 13.6668H10C10.7334 13.6668 11.3334 13.0668 11.3334 12.3335V4.3335L7.33335 0.333496ZM10 12.3335H2.00002V1.66683H6.80002H7.33335V4.3335H10V12.3335Z" fill="#4D4169"/>
    <path d="M9.33333 10.3335H8V11.0002H9.33333V10.3335Z" fill="#4D4169"/>
    <path d="M9.33333 7.66699H8V8.33366H9.33333V7.66699Z" fill="#4D4169"/>
    <path d="M9.33333 6.3335H8V7.00016H9.33333V6.3335Z" fill="#4D4169"/>
</svg>
