<svg width="16" height="16" viewBox="0 0 16 16" fill="none" xmlns="http://www.w3.org/2000/svg">
<g id="volume-max">
<path id="Icon" d="M13.1653 3.33334C14.1102 4.64683 14.6667 6.25842 14.6667 8C14.6667 9.74158 14.1102 11.3532 13.1653 12.6667M10.4969 5.33334C11.0241 6.08922 11.3333 7.0085 11.3333 8C11.3333 8.9915 11.0241 9.91078 10.4969 10.6667M6.42289 2.91046L4.31243 5.02092C4.19713 5.13622 4.13948 5.19387 4.0722 5.2351C4.01255 5.27165 3.94752 5.29858 3.8795 5.31492C3.80277 5.33334 3.72124 5.33334 3.55818 5.33334H2.40001C2.02664 5.33334 1.83996 5.33334 1.69735 5.406C1.57191 5.46991 1.46992 5.5719 1.40601 5.69734C1.33334 5.83995 1.33334 6.02663 1.33334 6.4V9.6C1.33334 9.97337 1.33334 10.1601 1.40601 10.3027C1.46992 10.4281 1.57191 10.5301 1.69735 10.594C1.83996 10.6667 2.02664 10.6667 2.40001 10.6667H3.55818C3.72124 10.6667 3.80277 10.6667 3.8795 10.6851C3.94752 10.7014 4.01255 10.7284 4.0722 10.7649C4.13948 10.8061 4.19713 10.8638 4.31243 10.9791L6.42289 13.0895C6.70847 13.3751 6.85126 13.5179 6.97386 13.5276C7.08023 13.5359 7.18418 13.4929 7.25348 13.4117C7.33334 13.3182 7.33334 13.1163 7.33334 12.7124V3.28758C7.33334 2.88371 7.33334 2.68177 7.25348 2.58826C7.18418 2.50712 7.08023 2.46406 6.97386 2.47243C6.85126 2.48208 6.70847 2.62487 6.42289 2.91046Z" stroke="#404655" stroke-width="1.5" stroke-linecap="round" stroke-linejoin="round"/>
</g>
</svg>
