<svg width="16" height="16" viewBox="0 0 16 16" fill="none" xmlns="http://www.w3.org/2000/svg">
<g id="life-buoy-02" clip-path="url(#clip0_861_41535)">
<path id="Icon" d="M5.64296 5.643L3.28595 3.28598M3.28595 12.7141L5.64298 10.357M10.357 10.357L12.714 12.714M12.714 3.28595L10.357 5.64298M14.6667 8.00001C14.6667 11.6819 11.6819 14.6667 8 14.6667C4.3181 14.6667 1.33333 11.6819 1.33333 8.00001C1.33333 4.31811 4.3181 1.33334 8 1.33334C11.6819 1.33334 14.6667 4.31811 14.6667 8.00001ZM11.3333 8.00001C11.3333 9.84096 9.84094 11.3333 8 11.3333C6.15905 11.3333 4.66666 9.84096 4.66666 8.00001C4.66666 6.15906 6.15905 4.66668 8 4.66668C9.84094 4.66668 11.3333 6.15906 11.3333 8.00001Z" stroke="currentColor" stroke-width="1.5" stroke-linecap="round" stroke-linejoin="round"/>
</g>
<defs>
<clipPath id="clip0_861_41535">
<rect width="16" height="16" fill="white"/>
</clipPath>
</defs>
</svg>
