<svg xmlns="http://www.w3.org/2000/svg" width="16" height="16" viewBox="0 0 16 16" fill="none">
    <path d="M5.33333 3.66667C5.33333 4.6 4.6 5.33333 3.66667 5.33333C2.73333 5.33333 2 4.6 2 3.66667C2 2.73333 2.73333 2 3.66667 2C4.6 2 5.33333 2.73333 5.33333 3.66667ZM12.3333 10.6667C11.4 10.6667 10.6667 11.4 10.6667 12.3333C10.6667 13.2667 11.4 14 12.3333 14C13.2667 14 14 13.2667 14 12.3333C14 11.4 13.2667 10.6667 12.3333 10.6667ZM14 4.66667V2.66667C14 2.26667 13.7333 2 13.3333 2H11.3333C10.9333 2 10.6667 2.26667 10.6667 2.66667V4.66667C10.6667 5.06667 10.9333 5.33333 11.3333 5.33333H13.3333C13.7333 5.33333 14 5.06667 14 4.66667ZM3.2 10.4667L1.8 11.8667C1.53333 12.1333 1.53333 12.5333 1.8 12.8L3.2 14.2C3.46667 14.4667 3.86667 14.4667 4.13333 14.2L5.53333 12.8C5.8 12.5333 5.8 12.1333 5.53333 11.8667L4.13333 10.4667C3.86667 10.2 3.46667 10.2 3.2 10.4667ZM3.66667 6.33333L2.66667 7.33333H3.33333V9.33333H4V7.33333H4.66667L3.66667 6.33333ZM9.66667 3.66667L8.66667 2.66667V3.33333H6.66667V4H8.66667V4.66667L9.66667 3.66667ZM12.3333 9.66667L13.3333 8.66667H12.6667V6.66667H12V8.66667H11.3333L12.3333 9.66667Z" fill="currentColor"/>
</svg>
