<svg width="24" height="24" viewBox="0 0 24 24" fill="none" xmlns="http://www.w3.org/2000/svg">
<g id="pimcore">
<path id="Vector" d="M19 7C17.3 7 15.8 7.8 14.8 9.2L11.1 14.7C10.2 16.2 8.7 17 7 17C4.2 17 2 14.8 2 12C2 9.2 4.2 7 7 7C8.7 7 10.2 7.8 11.2 9.2L11.8 10.2L13 8.4L12.8 8.1C11.5 6.2 9.3 5 7 5C3.1 5 0 8.1 0 12C0 15.9 3.1 19 7 19C9.3 19 11.5 17.8 12.8 15.9L14.2 13.8L14.8 14.8C15.7 16.2 17.3 17 19 17C21.8 17 24 14.8 24 12C24 9.2 21.8 7 19 7ZM19 15C18 15 17.1 14.5 16.5 13.7L15.4 12L16.5 10.4C17 9.5 18 9 19 9C20.7 9 22 10.3 22 12C22 13.7 20.7 15 19 15Z" fill="#5520A6"/>
</g>
</svg>
