<svg width="8" height="10" viewBox="0 0 8 10" fill="none" xmlns="http://www.w3.org/2000/svg">
    <path fill-rule="evenodd" clip-rule="evenodd" d="M0.518958 7.9806C0.232102 8.27941 0.241791 8.75418 0.5406 9.04104C0.839408 9.32789 1.31418 9.31821 1.60104 9.0194L4.96104 5.5194C5.23965 5.22918 5.23965 4.77082 4.96104 4.4806L1.60104 0.9806C1.31418 0.681791 0.839409 0.672102 0.540601 0.958958C0.241792 1.24581 0.232103 1.72059 0.518959 2.0194L3.38034 5L0.518958 7.9806ZM6.19 8.5C6.19 8.91421 6.52578 9.25 6.94 9.25C7.35421 9.25 7.69 8.91421 7.69 8.5L7.69 1.5C7.69 1.08579 7.35421 0.749999 6.94 0.749999C6.52579 0.749999 6.19 1.08579 6.19 1.5L6.19 8.5Z" fill="currentColor" fill-opacity="0.45"/>
</svg>