<svg width="8" height="10" viewBox="0 0 8 10" fill="none" xmlns="http://www.w3.org/2000/svg">
    <path fill-rule="evenodd" clip-rule="evenodd" d="M7.48104 2.0194C7.76789 1.72059 7.7582 1.24582 7.4594 0.95896C7.16059 0.672104 6.68581 0.681794 6.39896 0.980602L3.03896 4.4806C2.76034 4.77082 2.76034 5.22918 3.03896 5.5194L6.39896 9.0194C6.68581 9.31821 7.16059 9.3279 7.4594 9.04104C7.7582 8.75418 7.76789 8.27941 7.48104 7.9806L4.61966 5L7.48104 2.0194ZM1.81 1.5C1.81 1.08579 1.47421 0.75 1.06 0.75C0.645785 0.75 0.309998 1.08579 0.309998 1.5V8.5C0.309998 8.91421 0.645784 9.25 1.06 9.25C1.47421 9.25 1.81 8.91421 1.81 8.5L1.81 1.5Z" fill="currentColor" fill-opacity="0.45"/>
</svg>