<svg width="16" height="16" viewBox="0 0 16 16" fill="none" xmlns="http://www.w3.org/2000/svg">
    <path d="M13.36 2.50114L10.4038 2.86833C10.3007 2.88083 10.2585 3.00583 10.3303 3.07927L11.185 3.93396L8.78659 6.33239C8.76333 6.35589 8.75028 6.38761 8.75028 6.42068C8.75028 6.45374 8.76333 6.48546 8.78659 6.50896L9.49128 7.21364C9.53972 7.26208 9.61941 7.26208 9.66784 7.21364L12.0678 4.81364L12.9225 5.66833C12.939 5.68481 12.9598 5.69631 12.9825 5.70152C13.0053 5.70672 13.029 5.70541 13.051 5.69775C13.073 5.69008 13.0925 5.67637 13.107 5.65818C13.1216 5.63999 13.1308 5.61805 13.1335 5.59489L13.4991 2.64021C13.5017 2.62134 13.4999 2.60213 13.4938 2.58407C13.4877 2.56602 13.4776 2.54962 13.4641 2.53615C13.4506 2.52269 13.4342 2.51252 13.4162 2.50644C13.3981 2.50037 13.3789 2.49856 13.36 2.50114V2.50114ZM6.51003 8.78552C6.48654 8.76226 6.45481 8.74921 6.42175 8.74921C6.38869 8.74921 6.35696 8.76226 6.33347 8.78552L3.93503 11.1855L3.08034 10.3308C3.06385 10.3144 3.04305 10.3028 3.02033 10.2976C2.9976 10.2924 2.97387 10.2937 2.95185 10.3014C2.92983 10.3091 2.91042 10.3228 2.89584 10.341C2.88126 10.3592 2.8721 10.3811 2.86941 10.4043L2.50222 13.359C2.49284 13.4402 2.56003 13.5074 2.64128 13.498L5.59753 13.1308C5.70066 13.1183 5.74284 12.9933 5.67097 12.9199L4.81628 12.0652L7.21628 9.66521C7.26472 9.61677 7.26472 9.53708 7.21628 9.48864L6.51003 8.78552V8.78552Z" fill="currentColor" fill-opacity="0.88"/>
</svg>