<svg width="16" height="16" viewBox="0 0 16 16" fill="none" xmlns="http://www.w3.org/2000/svg">
    <path d="M14.7219 7.59688C13.2407 4.47656 11.0016 2.90625 8.00003 2.90625C4.9969 2.90625 2.7594 4.47656 1.27815 7.59844C1.21874 7.72425 1.18793 7.86165 1.18793 8.00078C1.18793 8.13991 1.21874 8.27732 1.27815 8.40312C2.7594 11.5234 4.99847 13.0938 8.00003 13.0938C11.0032 13.0938 13.2407 11.5234 14.7219 8.40156C14.8422 8.14844 14.8422 7.85469 14.7219 7.59688V7.59688ZM8.00003 11.9688C5.47972 11.9688 3.6344 10.6906 2.33284 8C3.6344 5.30938 5.47972 4.03125 8.00003 4.03125C10.5203 4.03125 12.3657 5.30938 13.6672 8C12.3672 10.6906 10.5219 11.9688 8.00003 11.9688ZM7.93753 5.25C6.41878 5.25 5.18753 6.48125 5.18753 8C5.18753 9.51875 6.41878 10.75 7.93753 10.75C9.45628 10.75 10.6875 9.51875 10.6875 8C10.6875 6.48125 9.45628 5.25 7.93753 5.25ZM7.93753 9.75C6.97034 9.75 6.18753 8.96719 6.18753 8C6.18753 7.03281 6.97034 6.25 7.93753 6.25C8.90472 6.25 9.68753 7.03281 9.68753 8C9.68753 8.96719 8.90472 9.75 7.93753 9.75Z" fill="currentColor" fill-opacity="0.88"/>
</svg>