<svg width="16" height="16" viewBox="0 0 16 16" fill="none" xmlns="http://www.w3.org/2000/svg">
<g id="file-code-01">
<path id="Icon" d="M9.33332 1.51302V4.26671C9.33332 4.64008 9.33332 4.82676 9.40599 4.96937C9.4699 5.09481 9.57189 5.1968 9.69733 5.26071C9.83994 5.33338 10.0266 5.33338 10.4 5.33338H13.1537M9.33332 11.6667L11 10L9.33332 8.33333M6.66666 8.33333L4.99999 10L6.66666 11.6667M13.3333 6.65881V11.4667C13.3333 12.5868 13.3333 13.1468 13.1153 13.5746C12.9236 13.951 12.6176 14.2569 12.2413 14.4487C11.8135 14.6667 11.2534 14.6667 10.1333 14.6667H5.86666C4.74655 14.6667 4.1865 14.6667 3.75868 14.4487C3.38235 14.2569 3.07639 13.951 2.88464 13.5746C2.66666 13.1468 2.66666 12.5868 2.66666 11.4667V4.53333C2.66666 3.41322 2.66666 2.85317 2.88464 2.42535C3.07639 2.04902 3.38235 1.74306 3.75868 1.55132C4.1865 1.33333 4.74655 1.33333 5.86666 1.33333H8.00784C8.49702 1.33333 8.74161 1.33333 8.97179 1.38859C9.17586 1.43758 9.37095 1.51839 9.54989 1.62805C9.75173 1.75173 9.92468 1.92468 10.2706 2.27059L12.3961 4.39607C12.742 4.74197 12.9149 4.91493 13.0386 5.11676C13.1483 5.2957 13.2291 5.49079 13.2781 5.69486C13.3333 5.92504 13.3333 6.16963 13.3333 6.65881Z" stroke="currentColor" stroke-width="1.5" stroke-linecap="round" stroke-linejoin="round"/>
</g>
</svg>
