<svg xmlns="http://www.w3.org/2000/svg" width="16" height="16" viewBox="0 0 16 16" fill="none">
    <path d="M14 10.8V9.33333C14 8.6 13.4 8 12.6667 8H8.66666V6.59999C9.8 6.33333 10.6667 5.26666 10.6667 3.99999C10.6667 2.53333 9.46666 1.33333 8 1.33333C6.53333 1.33333 5.33333 2.53333 5.33333 3.99999C5.33333 5.26666 6.2 6.26666 7.33333 6.59999V8H3.33333C2.6 8 2 8.6 2 9.33333V10.8C1.2 11.0667 0.666664 11.8 0.666664 12.6667C0.666664 13.8 1.53333 14.6667 2.66666 14.6667C3.8 14.6667 4.66666 13.8 4.66666 12.6667C4.66666 11.8 4.13333 11.0667 3.33333 10.8V9.33333H7.33333V10.8C6.53333 11.0667 6 11.8 6 12.6667C6 13.8 6.86666 14.6667 8 14.6667C9.13333 14.6667 10 13.8 10 12.6667C10 11.8 9.46666 11.0667 8.66666 10.8V9.33333H12.6667V10.8C11.8667 11.0667 11.3333 11.8 11.3333 12.6667C11.3333 13.8 12.2 14.6667 13.3333 14.6667C14.4667 14.6667 15.3333 13.8 15.3333 12.6667C15.3333 11.8 14.8 11.0667 14 10.8ZM2.66666 13.3333C2.26666 13.3333 2 13.0667 2 12.6667C2 12.2667 2.26666 12 2.66666 12C3.06666 12 3.33333 12.2667 3.33333 12.6667C3.33333 13.0667 3.06666 13.3333 2.66666 13.3333ZM6.66666 3.99999C6.66666 3.26666 7.26666 2.66666 8 2.66666C8.73333 2.66666 9.33333 3.26666 9.33333 3.99999C9.33333 4.73333 8.73333 5.33333 8 5.33333C7.26666 5.33333 6.66666 4.73333 6.66666 3.99999ZM8 13.3333C7.6 13.3333 7.33333 13.0667 7.33333 12.6667C7.33333 12.2667 7.6 12 8 12C8.4 12 8.66666 12.2667 8.66666 12.6667C8.66666 13.0667 8.4 13.3333 8 13.3333ZM13.3333 13.3333C12.9333 13.3333 12.6667 13.0667 12.6667 12.6667C12.6667 12.2667 12.9333 12 13.3333 12C13.7333 12 14 12.2667 14 12.6667C14 13.0667 13.7333 13.3333 13.3333 13.3333Z" fill="currentColor"/>
</svg>
