<svg width="19" height="19" viewBox="0 0 19 19" fill="none" xmlns="http://www.w3.org/2000/svg">
<path d="M16.175 8.75C15.8 5.6 13.325 3.125 10.25 2.825V1.25H8.75V2.825C5.6 3.125 3.125 5.6 2.825 8.75H1.25V10.25H2.825C3.2 13.4 5.675 15.875 8.75 16.175V17.75H10.25V16.175C13.4 15.8 15.875 13.325 16.175 10.25H17.75V8.75H16.175ZM9.5 14.75C6.575 14.75 4.25 12.425 4.25 9.5C4.25 6.575 6.575 4.25 9.5 4.25C12.425 4.25 14.75 6.575 14.75 9.5C14.75 12.425 12.425 14.75 9.5 14.75ZM12.5 9.5C12.5 11.15 11.15 12.5 9.5 12.5C7.85 12.5 6.5 11.15 6.5 9.5C6.5 7.85 7.85 6.5 9.5 6.5C11.15 6.5 12.5 7.85 12.5 9.5Z" fill="currentColor"/>
</svg>