<svg width="16" height="16" viewBox="0 0 16 16" fill="none" xmlns="http://www.w3.org/2000/svg">
<g id="arrow-narrow-right">
<path id="Union" d="M8.80371 3.46994C9.07821 3.19568 9.51215 3.17827 9.80664 3.41818L9.86426 3.46994L13.8643 7.46994L13.915 7.52658C14.1553 7.82108 14.1387 8.25586 13.8643 8.53049L9.86426 12.5305C9.57151 12.8232 9.09664 12.8229 8.80371 12.5305C8.51082 12.2376 8.51082 11.7628 8.80371 11.4699L11.5234 8.75021H2.66699C2.25285 8.75021 1.9171 8.41433 1.91699 8.00021C1.91699 7.586 2.25278 7.25021 2.66699 7.25021H11.5234L8.80371 4.53049L8.75195 4.47385C8.51151 4.17926 8.52906 3.74459 8.80371 3.46994Z" fill="currentColor"/>
</g>
</svg>
