<svg width="16" height="16" viewBox="0 0 16 16" fill="none" xmlns="http://www.w3.org/2000/svg">
<g id="check-done-02" clip-path="url(#clip0_3688_177479)">
<path id="Icon" d="M10.6667 5.33203V3.46536C10.6667 2.71863 10.6667 2.34526 10.5214 2.06004C10.3935 1.80916 10.1895 1.60519 9.93866 1.47736C9.65345 1.33203 9.28008 1.33203 8.53334 1.33203H3.46668C2.71994 1.33203 2.34657 1.33203 2.06136 1.47736C1.81047 1.60519 1.6065 1.80916 1.47867 2.06004C1.33334 2.34526 1.33334 2.71863 1.33334 3.46536V8.53203C1.33334 9.27877 1.33334 9.65214 1.47867 9.93735C1.6065 10.1882 1.81047 10.3922 2.06136 10.52C2.34657 10.6654 2.71994 10.6654 3.46668 10.6654H5.33334M8.00001 9.9987L9.33334 11.332L12.3333 8.33203M7.46668 14.6654H12.5333C13.2801 14.6654 13.6534 14.6654 13.9387 14.52C14.1895 14.3922 14.3935 14.1882 14.5214 13.9374C14.6667 13.6521 14.6667 13.2788 14.6667 12.532V7.46536C14.6667 6.71863 14.6667 6.34526 14.5214 6.06004C14.3935 5.80916 14.1895 5.60519 13.9387 5.47736C13.6534 5.33203 13.2801 5.33203 12.5333 5.33203H7.46668C6.71994 5.33203 6.34657 5.33203 6.06136 5.47736C5.81047 5.60519 5.6065 5.80916 5.47867 6.06004C5.33334 6.34526 5.33334 6.71863 5.33334 7.46536V12.532C5.33334 13.2788 5.33334 13.6521 5.47867 13.9374C5.6065 14.1882 5.81047 14.3922 6.06136 14.52C6.34657 14.6654 6.71994 14.6654 7.46668 14.6654Z" stroke="currentColor" stroke-opacity="0.6" stroke-width="1.3" stroke-linecap="round" stroke-linejoin="round"/>
</g>
<defs>
<clipPath id="clip0_3688_177479">
<rect width="16" height="16" fill="white"/>
</clipPath>
</defs>
</svg>
