<svg width="16" height="16" viewBox="0 0 16 16" fill="none" xmlns="http://www.w3.org/2000/svg">
<g id="clipboard-check">
<path id="Icon" d="M10.6667 2.66671C11.2867 2.66671 11.5967 2.66671 11.8511 2.73486C12.5412 2.91979 13.0803 3.45889 13.2653 4.14907C13.3334 4.4034 13.3334 4.71339 13.3334 5.33337V11.4667C13.3334 12.5868 13.3334 13.1469 13.1154 13.5747C12.9237 13.951 12.6177 14.257 12.2414 14.4487C11.8136 14.6667 11.2535 14.6667 10.1334 14.6667H5.86675C4.74664 14.6667 4.18659 14.6667 3.75877 14.4487C3.38244 14.257 3.07648 13.951 2.88473 13.5747C2.66675 13.1469 2.66675 12.5868 2.66675 11.4667V5.33337C2.66675 4.71339 2.66675 4.4034 2.7349 4.14907C2.91983 3.45889 3.45893 2.91979 4.14911 2.73486C4.40344 2.66671 4.71343 2.66671 5.33341 2.66671M6.00008 10L7.33341 11.3334L10.3334 8.33337M6.40008 4.00004H9.60008C9.97345 4.00004 10.1601 4.00004 10.3027 3.92738C10.4282 3.86346 10.5302 3.76148 10.5941 3.63603C10.6667 3.49343 10.6667 3.30674 10.6667 2.93337V2.40004C10.6667 2.02667 10.6667 1.83999 10.5941 1.69738C10.5302 1.57194 10.4282 1.46995 10.3027 1.40604C10.1601 1.33337 9.97345 1.33337 9.60008 1.33337H6.40008C6.02671 1.33337 5.84003 1.33337 5.69742 1.40604C5.57198 1.46995 5.46999 1.57194 5.40608 1.69738C5.33341 1.83999 5.33341 2.02667 5.33341 2.40004V2.93337C5.33341 3.30674 5.33341 3.49343 5.40608 3.63603C5.46999 3.76148 5.57198 3.86346 5.69742 3.92738C5.84003 4.00004 6.02671 4.00004 6.40008 4.00004Z" stroke="currentColor" stroke-opacity="0.88" stroke-width="1.3" stroke-linecap="round" stroke-linejoin="round"/>
</g>
</svg>
