<svg width="16" height="16" viewBox="0 0 16 16" fill="none" xmlns="http://www.w3.org/2000/svg">
<g id="copy-07" clip-path="url(#clip0_3591_67981)">
    <path id="Icon" d="M6.99992 1.3339C6.54989 1.33999 6.27972 1.36605 6.06126 1.47736C5.81038 1.60519 5.60641 1.80916 5.47858 2.06004C5.36727 2.2785 5.34121 2.54866 5.33512 2.9987M12.9999 1.3339C13.45 1.33999 13.7201 1.36605 13.9386 1.47736C14.1895 1.60519 14.3934 1.80916 14.5213 2.06004C14.6326 2.2785 14.6586 2.54866 14.6647 2.99869M14.6647 8.99869C14.6586 9.44873 14.6326 9.7189 14.5213 9.93735C14.3934 10.1882 14.1895 10.3922 13.9386 10.52C13.7201 10.6313 13.45 10.6574 12.9999 10.6635M14.6666 5.33203V6.66536M9.33329 1.33203H10.6666M3.46659 14.6654H8.53325C9.27999 14.6654 9.65336 14.6654 9.93857 14.52C10.1895 14.3922 10.3934 14.1882 10.5213 13.9374C10.6666 13.6521 10.6666 13.2788 10.6666 12.532V7.46536C10.6666 6.71863 10.6666 6.34526 10.5213 6.06004C10.3934 5.80916 10.1895 5.60519 9.93857 5.47736C9.65336 5.33203 9.27999 5.33203 8.53325 5.33203H3.46659C2.71985 5.33203 2.34648 5.33203 2.06126 5.47736C1.81038 5.60519 1.60641 5.80916 1.47858 6.06004C1.33325 6.34526 1.33325 6.71863 1.33325 7.46536V12.532C1.33325 13.2788 1.33325 13.6521 1.47858 13.9374C1.60641 14.1882 1.81038 14.3922 2.06126 14.52C2.34648 14.6654 2.71985 14.6654 3.46659 14.6654Z" stroke="currentColor" stroke-opacity="0.6" stroke-width="1.5" stroke-linecap="round" stroke-linejoin="round"/>
</g>
<defs>
<clipPath id="clip0_3591_67981">
<rect width="16" height="16" fill="white"/>
</clipPath>
</defs>
</svg>
