<svg width="8" height="12" viewBox="0 0 8 12" fill="none" xmlns="http://www.w3.org/2000/svg">
<g id="Icon">
<path d="M6.33333 2.25C6.70152 2.25 7 1.97018 7 1.625C7 1.27982 6.70152 1 6.33333 1C5.96514 1 5.66667 1.27982 5.66667 1.625C5.66667 1.97018 5.96514 2.25 6.33333 2.25Z" fill="currentColor" fill-opacity="0.6"/>
<path d="M6.33333 6.625C6.70152 6.625 7 6.34518 7 6C7 5.65482 6.70152 5.375 6.33333 5.375C5.96514 5.375 5.66667 5.65482 5.66667 6C5.66667 6.34518 5.96514 6.625 6.33333 6.625Z" fill="currentColor" fill-opacity="0.6"/>
<path d="M6.33333 11C6.70152 11 7 10.7202 7 10.375C7 10.0298 6.70152 9.75 6.33333 9.75C5.96514 9.75 5.66667 10.0298 5.66667 10.375C5.66667 10.7202 5.96514 11 6.33333 11Z" fill="currentColor" fill-opacity="0.6"/>
<path d="M1.66667 2.25C2.03486 2.25 2.33333 1.97018 2.33333 1.625C2.33333 1.27982 2.03486 1 1.66667 1C1.29848 1 1 1.27982 1 1.625C1 1.97018 1.29848 2.25 1.66667 2.25Z" fill="currentColor" fill-opacity="0.6"/>
<path d="M1.66667 6.625C2.03486 6.625 2.33333 6.34518 2.33333 6C2.33333 5.65482 2.03486 5.375 1.66667 5.375C1.29848 5.375 1 5.65482 1 6C1 6.34518 1.29848 6.625 1.66667 6.625Z" fill="currentColor" fill-opacity="0.6"/>
<path d="M1.66667 11C2.03486 11 2.33333 10.7202 2.33333 10.375C2.33333 10.0298 2.03486 9.75 1.66667 9.75C1.29848 9.75 1 10.0298 1 10.375C1 10.7202 1.29848 11 1.66667 11Z" fill="currentColor" fill-opacity="0.6"/>
<path d="M6.33333 2.4C6.7751 2.4 7.15 2.06199 7.15 1.625C7.15 1.18801 6.7751 0.85 6.33333 0.85C5.89157 0.85 5.51667 1.18801 5.51667 1.625C5.51667 2.06199 5.89157 2.4 6.33333 2.4ZM6.33333 6.775C6.7751 6.775 7.15 6.43699 7.15 6C7.15 5.56301 6.7751 5.225 6.33333 5.225C5.89157 5.225 5.51667 5.56301 5.51667 6C5.51667 6.43699 5.89157 6.775 6.33333 6.775ZM6.33333 11.15C6.7751 11.15 7.15 10.812 7.15 10.375C7.15 9.93801 6.7751 9.6 6.33333 9.6C5.89157 9.6 5.51667 9.93801 5.51667 10.375C5.51667 10.812 5.89157 11.15 6.33333 11.15ZM1.66667 2.4C2.10843 2.4 2.48333 2.06199 2.48333 1.625C2.48333 1.18801 2.10843 0.85 1.66667 0.85C1.2249 0.85 0.85 1.18801 0.85 1.625C0.85 2.06199 1.2249 2.4 1.66667 2.4ZM1.66667 6.775C2.10843 6.775 2.48333 6.43699 2.48333 6C2.48333 5.56301 2.10843 5.225 1.66667 5.225C1.2249 5.225 0.85 5.56301 0.85 6C0.85 6.43699 1.2249 6.775 1.66667 6.775ZM1.66667 11.15C2.10843 11.15 2.48333 10.812 2.48333 10.375C2.48333 9.93801 2.10843 9.6 1.66667 9.6C1.2249 9.6 0.85 9.93801 0.85 10.375C0.85 10.812 1.2249 11.15 1.66667 11.15Z" stroke="currentColor" stroke-opacity="0.6" stroke-width="0.3" stroke-linecap="round" stroke-linejoin="round"/>
</g>
</svg>
