<svg width="24" height="24" viewBox="0 0 24 24" fill="none" xmlns="http://www.w3.org/2000/svg">
<g id="file-download-01">
<g id="Union">
<path d="M8.77779 1.5H15.2222C16.0435 1.5 16.6905 1.49999 17.2111 1.54253C17.7423 1.58593 18.1859 1.67609 18.589 1.88148C19.2475 2.21703 19.783 2.75247 20.1185 3.41103C20.3239 3.81413 20.4141 4.25771 20.4575 4.78889C20.5 5.30954 20.5 5.95651 20.5 6.77778V12.5C20.5 12.7761 20.2761 13 20 13C19.7239 13 19.5 12.7761 19.5 12.5V6.8C19.5 5.95167 19.4996 5.34549 19.4608 4.87032C19.4224 4.40099 19.3491 4.10366 19.2275 3.86502C18.9878 3.39462 18.6054 3.01217 18.135 2.77248C17.8963 2.65089 17.599 2.57756 17.1297 2.53921C16.6545 2.50039 16.0483 2.5 15.2 2.5H9.5V4.5H11C11.2761 4.5 11.5 4.72386 11.5 5C11.5 5.27614 11.2761 5.5 11 5.5H9.5V7.5H11C11.2761 7.5 11.5 7.72386 11.5 8C11.5 8.27614 11.2761 8.5 11 8.5H9.5V10C9.5 10.2761 9.27614 10.5 9 10.5C8.72386 10.5 8.5 10.2761 8.5 10V8.5H7C6.72386 8.5 6.5 8.27614 6.5 8C6.5 7.72386 6.72386 7.5 7 7.5H8.5V5.5H7C6.72386 5.5 6.5 5.27614 6.5 5C6.5 4.72386 6.72386 4.5 7 4.5H8.5V2.50009C7.80565 2.50067 7.2875 2.50513 6.87032 2.53921C6.40099 2.57756 6.10366 2.65089 5.86502 2.77248C5.39462 3.01217 5.01217 3.39462 4.77248 3.86502C4.65089 4.10366 4.57756 4.40099 4.53921 4.87032C4.50039 5.34549 4.5 5.95167 4.5 6.8V17.2C4.5 18.0483 4.50039 18.6545 4.53921 19.1297C4.57756 19.599 4.65089 19.8963 4.77248 20.135C5.01217 20.6054 5.39462 20.9878 5.86502 21.2275C6.10366 21.3491 6.40098 21.4224 6.87029 21.4608C7.34544 21.4996 7.95158 21.5 8.79986 21.5H12.5C12.7761 21.5 13 21.7239 13 22C13 22.2761 12.7761 22.5 12.5 22.5H8.77764C7.95642 22.5 7.30948 22.5 6.78885 22.4575C6.2577 22.4141 5.81413 22.3239 5.41103 22.1185C4.75247 21.783 4.21703 21.2475 3.88148 20.589C3.67609 20.1859 3.58593 19.7423 3.54253 19.2111C3.49999 18.6905 3.5 18.0435 3.5 17.2222V6.77779C3.5 5.95652 3.49999 5.30955 3.54253 4.78889C3.58593 4.25771 3.67609 3.81414 3.88148 3.41103C4.21703 2.75247 4.75247 2.21703 5.41103 1.88148C5.81414 1.67609 6.25771 1.58593 6.78889 1.54253C7.30954 1.49999 7.95653 1.5 8.77779 1.5Z" fill="currentColor"/>
<path d="M17 22.5C16.7239 22.5 16.5 22.2761 16.5 22V17.2071L14.3536 19.3536C14.1583 19.5488 13.8417 19.5488 13.6464 19.3536C13.4512 19.1583 13.4512 18.8417 13.6464 18.6464L16.6464 15.6464C16.8417 15.4512 17.1583 15.4512 17.3536 15.6464L20.3536 18.6464C20.5488 18.8417 20.5488 19.1583 20.3536 19.3536C20.1583 19.5488 19.8417 19.5488 19.6464 19.3536L17.5 17.2071V22C17.5 22.2761 17.2761 22.5 17 22.5Z" fill="currentColor"/>
<path d="M8.77779 1.5H15.2222C16.0435 1.5 16.6905 1.49999 17.2111 1.54253C17.7423 1.58593 18.1859 1.67609 18.589 1.88148C19.2475 2.21703 19.783 2.75247 20.1185 3.41103C20.3239 3.81413 20.4141 4.25771 20.4575 4.78889C20.5 5.30954 20.5 5.95651 20.5 6.77778V12.5C20.5 12.7761 20.2761 13 20 13C19.7239 13 19.5 12.7761 19.5 12.5V6.8C19.5 5.95167 19.4996 5.34549 19.4608 4.87032C19.4224 4.40099 19.3491 4.10366 19.2275 3.86502C18.9878 3.39462 18.6054 3.01217 18.135 2.77248C17.8963 2.65089 17.599 2.57756 17.1297 2.53921C16.6545 2.50039 16.0483 2.5 15.2 2.5H9.5V4.5H11C11.2761 4.5 11.5 4.72386 11.5 5C11.5 5.27614 11.2761 5.5 11 5.5H9.5V7.5H11C11.2761 7.5 11.5 7.72386 11.5 8C11.5 8.27614 11.2761 8.5 11 8.5H9.5V10C9.5 10.2761 9.27614 10.5 9 10.5C8.72386 10.5 8.5 10.2761 8.5 10V8.5H7C6.72386 8.5 6.5 8.27614 6.5 8C6.5 7.72386 6.72386 7.5 7 7.5H8.5V5.5H7C6.72386 5.5 6.5 5.27614 6.5 5C6.5 4.72386 6.72386 4.5 7 4.5H8.5V2.50009C7.80565 2.50067 7.2875 2.50513 6.87032 2.53921C6.40099 2.57756 6.10366 2.65089 5.86502 2.77248C5.39462 3.01217 5.01217 3.39462 4.77248 3.86502C4.65089 4.10366 4.57756 4.40099 4.53921 4.87032C4.50039 5.34549 4.5 5.95167 4.5 6.8V17.2C4.5 18.0483 4.50039 18.6545 4.53921 19.1297C4.57756 19.599 4.65089 19.8963 4.77248 20.135C5.01217 20.6054 5.39462 20.9878 5.86502 21.2275C6.10366 21.3491 6.40098 21.4224 6.87029 21.4608C7.34544 21.4996 7.95158 21.5 8.79986 21.5H12.5C12.7761 21.5 13 21.7239 13 22C13 22.2761 12.7761 22.5 12.5 22.5H8.77764C7.95642 22.5 7.30948 22.5 6.78885 22.4575C6.2577 22.4141 5.81413 22.3239 5.41103 22.1185C4.75247 21.783 4.21703 21.2475 3.88148 20.589C3.67609 20.1859 3.58593 19.7423 3.54253 19.2111C3.49999 18.6905 3.5 18.0435 3.5 17.2222V6.77779C3.5 5.95652 3.49999 5.30955 3.54253 4.78889C3.58593 4.25771 3.67609 3.81414 3.88148 3.41103C4.21703 2.75247 4.75247 2.21703 5.41103 1.88148C5.81414 1.67609 6.25771 1.58593 6.78889 1.54253C7.30954 1.49999 7.95653 1.5 8.77779 1.5Z" stroke="currentColor" stroke-width="0.3" stroke-linecap="round" stroke-linejoin="round"/>
<path d="M17 22.5C16.7239 22.5 16.5 22.2761 16.5 22V17.2071L14.3536 19.3536C14.1583 19.5488 13.8417 19.5488 13.6464 19.3536C13.4512 19.1583 13.4512 18.8417 13.6464 18.6464L16.6464 15.6464C16.8417 15.4512 17.1583 15.4512 17.3536 15.6464L20.3536 18.6464C20.5488 18.8417 20.5488 19.1583 20.3536 19.3536C20.1583 19.5488 19.8417 19.5488 19.6464 19.3536L17.5 17.2071V22C17.5 22.2761 17.2761 22.5 17 22.5Z" stroke="currentColor" stroke-width="0.3" stroke-linecap="round" stroke-linejoin="round"/>
</g>
</g>
</svg>
