<svg width="16" height="16" viewBox="0 0 16 16" fill="none" xmlns="http://www.w3.org/2000/svg">
<g id="file-upload-01">
<g id="Union">
<path d="M10.1481 1H5.85178C5.30427 0.999998 4.87295 0.999996 4.52585 1.02836C4.17173 1.05729 3.87601 1.11739 3.60727 1.25432C3.16823 1.47802 2.81127 1.83498 2.58757 2.27402C2.45064 2.54276 2.39054 2.83848 2.36161 3.19259C2.33325 3.5397 2.33325 3.97101 2.33325 4.51853V11.4815C2.33325 12.029 2.33325 12.4603 2.36161 12.8074C2.39054 13.1615 2.45064 13.4572 2.58757 13.726C2.81127 14.165 3.16823 14.522 3.60727 14.7457C3.87601 14.8826 4.17172 14.9427 4.52582 14.9716C4.87291 15 5.3042 15 5.85168 15H8.33325C8.51735 15 8.66659 14.8508 8.66659 14.6667C8.66659 14.4826 8.51735 14.3333 8.33325 14.3333H5.86649C5.30097 14.3333 4.89688 14.3331 4.58011 14.3072C4.26724 14.2816 4.06903 14.2327 3.90993 14.1517C3.59633 13.9919 3.34136 13.7369 3.18157 13.4233C3.10051 13.2642 3.05162 13.066 3.02606 12.7531C3.00018 12.4363 2.99992 12.0322 2.99992 11.4667V4.53333C2.99992 3.96778 3.00018 3.56366 3.02606 3.24688C3.05162 2.93399 3.10051 2.73577 3.18157 2.57668C3.34136 2.26308 3.59633 2.00811 3.90993 1.84832C4.06902 1.76726 4.26724 1.71837 4.58013 1.69281C4.85825 1.67009 5.20369 1.66711 5.66659 1.66672V3H4.66659C4.48249 3 4.33325 3.14924 4.33325 3.33333C4.33325 3.51743 4.48249 3.66667 4.66659 3.66667H5.66659V5H4.66659C4.48249 5 4.33325 5.14924 4.33325 5.33333C4.33325 5.51743 4.48249 5.66667 4.66659 5.66667H5.66659V6.66667C5.66659 6.85076 5.81582 7 5.99992 7C6.18401 7 6.33325 6.85076 6.33325 6.66667V5.66667H7.33325C7.51735 5.66667 7.66659 5.51743 7.66659 5.33333C7.66659 5.14924 7.51735 5 7.33325 5H6.33325V3.66667H7.33325C7.51735 3.66667 7.66659 3.51743 7.66659 3.33333C7.66659 3.14924 7.51735 3 7.33325 3H6.33325V1.66667H10.1333C10.6988 1.66667 11.1029 1.66693 11.4197 1.69281C11.7326 1.71837 11.9308 1.76726 12.0899 1.84832C12.4035 2.00811 12.6585 2.26308 12.8183 2.57668C12.8993 2.73577 12.9482 2.93399 12.9738 3.24688C12.9997 3.56366 12.9999 3.96778 12.9999 4.53333V8.33333C12.9999 8.51743 13.1492 8.66667 13.3333 8.66667C13.5173 8.66667 13.6666 8.51743 13.6666 8.33333V4.51852C13.6666 3.97101 13.6666 3.5397 13.6382 3.19259C13.6093 2.83848 13.5492 2.54276 13.4123 2.27402C13.1886 1.83498 12.8316 1.47802 12.3926 1.25432C12.1238 1.11739 11.8281 1.05729 11.474 1.02836C11.1269 0.999996 10.6956 0.999998 10.1481 1Z" fill="currentColor"/>
<path d="M11.6666 10.6667C11.6666 10.4826 11.5173 10.3333 11.3333 10.3333C11.1492 10.3333 10.9999 10.4826 10.9999 10.6667L10.9999 13.8619L9.56895 12.431C9.43878 12.3008 9.22772 12.3008 9.09755 12.431C8.96737 12.5611 8.96737 12.7722 9.09755 12.9024L11.0975 14.9024C11.2277 15.0325 11.4388 15.0325 11.569 14.9024L13.569 12.9024C13.6991 12.7722 13.6991 12.5611 13.569 12.431C13.4388 12.3008 13.2277 12.3008 13.0975 12.431L11.6666 13.8619L11.6666 10.6667Z" fill="currentColor"/>
<path d="M10.1481 1H5.85178C5.30427 0.999998 4.87295 0.999996 4.52585 1.02836C4.17173 1.05729 3.87601 1.11739 3.60727 1.25432C3.16823 1.47802 2.81127 1.83498 2.58757 2.27402C2.45064 2.54276 2.39054 2.83848 2.36161 3.19259C2.33325 3.5397 2.33325 3.97101 2.33325 4.51853V11.4815C2.33325 12.029 2.33325 12.4603 2.36161 12.8074C2.39054 13.1615 2.45064 13.4572 2.58757 13.726C2.81127 14.165 3.16823 14.522 3.60727 14.7457C3.87601 14.8826 4.17172 14.9427 4.52582 14.9716C4.87291 15 5.3042 15 5.85168 15H8.33325C8.51735 15 8.66659 14.8508 8.66659 14.6667C8.66659 14.4826 8.51735 14.3333 8.33325 14.3333H5.86649C5.30097 14.3333 4.89688 14.3331 4.58011 14.3072C4.26724 14.2816 4.06903 14.2327 3.90993 14.1517C3.59633 13.9919 3.34136 13.7369 3.18157 13.4233C3.10051 13.2642 3.05162 13.066 3.02606 12.7531C3.00018 12.4363 2.99992 12.0322 2.99992 11.4667V4.53333C2.99992 3.96778 3.00018 3.56366 3.02606 3.24688C3.05162 2.93399 3.10051 2.73577 3.18157 2.57668C3.34136 2.26308 3.59633 2.00811 3.90993 1.84832C4.06902 1.76726 4.26724 1.71837 4.58013 1.69281C4.85825 1.67009 5.20369 1.66711 5.66659 1.66672V3H4.66659C4.48249 3 4.33325 3.14924 4.33325 3.33333C4.33325 3.51743 4.48249 3.66667 4.66659 3.66667H5.66659V5H4.66659C4.48249 5 4.33325 5.14924 4.33325 5.33333C4.33325 5.51743 4.48249 5.66667 4.66659 5.66667H5.66659V6.66667C5.66659 6.85076 5.81582 7 5.99992 7C6.18401 7 6.33325 6.85076 6.33325 6.66667V5.66667H7.33325C7.51735 5.66667 7.66659 5.51743 7.66659 5.33333C7.66659 5.14924 7.51735 5 7.33325 5H6.33325V3.66667H7.33325C7.51735 3.66667 7.66659 3.51743 7.66659 3.33333C7.66659 3.14924 7.51735 3 7.33325 3H6.33325V1.66667H10.1333C10.6988 1.66667 11.1029 1.66693 11.4197 1.69281C11.7326 1.71837 11.9308 1.76726 12.0899 1.84832C12.4035 2.00811 12.6585 2.26308 12.8183 2.57668C12.8993 2.73577 12.9482 2.93399 12.9738 3.24688C12.9997 3.56366 12.9999 3.96778 12.9999 4.53333V8.33333C12.9999 8.51743 13.1492 8.66667 13.3333 8.66667C13.5173 8.66667 13.6666 8.51743 13.6666 8.33333V4.51852C13.6666 3.97101 13.6666 3.5397 13.6382 3.19259C13.6093 2.83848 13.5492 2.54276 13.4123 2.27402C13.1886 1.83498 12.8316 1.47802 12.3926 1.25432C12.1238 1.11739 11.8281 1.05729 11.474 1.02836C11.1269 0.999996 10.6956 0.999998 10.1481 1Z" stroke="currentColor" stroke-width="0.5" stroke-linecap="round" stroke-linejoin="round"/>
<path d="M11.6666 10.6667C11.6666 10.4826 11.5173 10.3333 11.3333 10.3333C11.1492 10.3333 10.9999 10.4826 10.9999 10.6667L10.9999 13.8619L9.56895 12.431C9.43878 12.3008 9.22772 12.3008 9.09755 12.431C8.96737 12.5611 8.96737 12.7722 9.09755 12.9024L11.0975 14.9024C11.2277 15.0325 11.4388 15.0325 11.569 14.9024L13.569 12.9024C13.6991 12.7722 13.6991 12.5611 13.569 12.431C13.4388 12.3008 13.2277 12.3008 13.0975 12.431L11.6666 13.8619L11.6666 10.6667Z" stroke="currentColor" stroke-width="0.5" stroke-linecap="round" stroke-linejoin="round"/>
</g>
</g>
</svg>
