<svg width="16" height="16" viewBox="0 0 16 16" fill="none" xmlns="http://www.w3.org/2000/svg">
<g id="file-lock-02">
<path id="Icon" d="M13.3334 6.66665V4.53331C13.3334 3.41321 13.3334 2.85316 13.1154 2.42533C12.9237 2.04901 12.6177 1.74305 12.2414 1.5513C11.8136 1.33331 11.2535 1.33331 10.1334 1.33331H5.86675C4.74664 1.33331 4.18659 1.33331 3.75877 1.5513C3.38244 1.74305 3.07648 2.04901 2.88473 2.42533C2.66675 2.85316 2.66675 3.41321 2.66675 4.53331V11.4666C2.66675 12.5868 2.66675 13.1468 2.88473 13.5746C3.07648 13.951 3.38244 14.2569 3.75877 14.4487C4.18659 14.6666 4.74664 14.6666 5.86675 14.6666H7.00008M8.66675 7.33331H5.33341M7.33341 9.99998H5.33341M10.6667 4.66665H5.33341M12.8334 11.3333V10.1666C12.8334 9.52231 12.3111 8.99998 11.6667 8.99998C11.0224 8.99998 10.5001 9.52231 10.5001 10.1666V11.3333M10.4001 14H12.9334C13.3068 14 13.4935 14 13.6361 13.9273C13.7615 13.8634 13.8635 13.7614 13.9274 13.636C14.0001 13.4934 14.0001 13.3067 14.0001 12.9333V12.4C14.0001 12.0266 14.0001 11.8399 13.9274 11.6973C13.8635 11.5719 13.7615 11.4699 13.6361 11.406C13.4935 11.3333 13.3068 11.3333 12.9334 11.3333H10.4001C10.0267 11.3333 9.84003 11.3333 9.69742 11.406C9.57198 11.4699 9.46999 11.5719 9.40608 11.6973C9.33341 11.8399 9.33341 12.0266 9.33341 12.4V12.9333C9.33341 13.3067 9.33341 13.4934 9.40608 13.636C9.46999 13.7614 9.57198 13.8634 9.69742 13.9273C9.84003 14 10.0267 14 10.4001 14Z" stroke="currentColor" stroke-opacity="0.88" stroke-width="1.2" stroke-linecap="round" stroke-linejoin="round"/>
</g>
</svg>
