<svg width="16" height="16" viewBox="0 0 16 16" fill="none" xmlns="http://www.w3.org/2000/svg">
<g id="folder-search">
<path id="Icon" d="M8.66659 4.66667L7.92289 3.17928C7.70885 2.7512 7.60183 2.53715 7.44217 2.38078C7.30097 2.24249 7.1308 2.13732 6.94397 2.07287C6.73269 2 6.49339 2 6.01478 2H3.46659C2.71985 2 2.34648 2 2.06126 2.14532C1.81038 2.27316 1.60641 2.47713 1.47858 2.72801C1.33325 3.01323 1.33325 3.3866 1.33325 4.13333V4.66667M1.33325 4.66667H11.4666C12.5867 4.66667 13.1467 4.66667 13.5746 4.88465C13.9509 5.0764 14.2569 5.38236 14.4486 5.75869C14.6666 6.18651 14.6666 6.74656 14.6666 7.86667V10.8C14.6666 11.9201 14.6666 12.4802 14.4486 12.908C14.2569 13.2843 13.9509 13.5903 13.5746 13.782C13.1467 14 12.5867 14 11.4666 14H4.53325C3.41315 14 2.85309 14 2.42527 13.782C2.04895 13.5903 1.74299 13.2843 1.55124 12.908C1.33325 12.4802 1.33325 11.9201 1.33325 10.8V4.66667ZM10.3333 11.6667L9.33325 10.6667M9.99992 9C9.99992 10.2887 8.95525 11.3333 7.66659 11.3333C6.37792 11.3333 5.33325 10.2887 5.33325 9C5.33325 7.71134 6.37792 6.66667 7.66659 6.66667C8.95525 6.66667 9.99992 7.71134 9.99992 9Z" stroke="currentColor" stroke-width="1.1" stroke-linecap="round" stroke-linejoin="round"/>
</g>
</svg>
