<svg width="16" height="16" viewBox="0 0 16 16" fill="currentColor" xmlns="http://www.w3.org/2000/svg">
<path fill-rule="evenodd" clip-rule="evenodd" d="M4.92285 2.14282C5.33695 2.14282 5.67267 2.47876 5.67285 2.89282V3.22974H10.9287V2.89282C10.9289 2.47884 11.2647 2.14295 11.6787 2.14282H13.8516C14.2657 2.14282 14.6014 2.47876 14.6016 2.89282V5.06567C14.6016 5.47989 14.2658 5.81567 13.8516 5.81567H13.5156V10.6057H13.8516C14.2658 10.6057 14.6016 10.9415 14.6016 11.3557V13.5286C14.6015 13.9427 14.2657 14.2786 13.8516 14.2786H11.6787C11.2646 14.2784 10.9288 13.9427 10.9287 13.5286V13.1926H5.67285V13.5286C5.67281 13.9427 5.33704 14.2786 4.92285 14.2786H2.75C2.33592 14.2784 2.00004 13.9427 2 13.5286V11.3557C2 10.9416 2.33589 10.6058 2.75 10.6057H3.08691V5.81567H2.75C2.33589 5.81555 2 5.47981 2 5.06567V2.89282C2.00018 2.47884 2.336 2.14295 2.75 2.14282H4.92285ZM3.5 12.7786H4.17285V12.1057H4.03223C3.96974 12.1226 3.90473 12.134 3.83691 12.134C3.7691 12.134 3.70409 12.1226 3.6416 12.1057H3.5V12.7786ZM12.4287 12.7786H13.1016V12.1057H12.9609C12.8985 12.1226 12.8334 12.134 12.7656 12.134C12.6978 12.134 12.6328 12.1226 12.5703 12.1057H12.4287V12.7786ZM5.67285 5.06567C5.67285 5.47989 5.33707 5.81567 4.92285 5.81567H4.58691V10.6057H4.92285C5.33707 10.6057 5.67285 10.9415 5.67285 11.3557V11.6926H10.9287V11.3557C10.9287 10.9416 11.2646 10.6058 11.6787 10.6057H12.0156V5.81567H11.6787C11.2646 5.81555 10.9287 5.47981 10.9287 5.06567V4.72974H5.67285V5.06567ZM3.5 4.31567H3.64453C3.70617 4.29929 3.77012 4.28735 3.83691 4.28735C3.90371 4.28735 3.96766 4.29929 4.0293 4.31567H4.17285V3.64282H3.5V4.31567ZM12.4287 4.31567H12.5732C12.6349 4.29929 12.6988 4.28735 12.7656 4.28735C12.8324 4.28735 12.8964 4.29929 12.958 4.31567H13.1016V3.64282H12.4287V4.31567Z" fill="currentColor"/>
</svg>
