<svg width="16" height="16" viewBox="0 0 16 16" fill="none" xmlns="http://www.w3.org/2000/svg">
<g id="grid">
<path id="Vector" d="M6.66659 2.66536V5.33203H9.33325V2.66536H6.66659ZM10.6666 2.66536V5.33203H13.3333V2.66536H10.6666ZM10.6666 6.66536V9.33203H13.3333V6.66536H10.6666ZM10.6666 10.6654V13.332H13.3333V10.6654H10.6666ZM9.33325 13.332V10.6654H6.66659V13.332H9.33325ZM5.33325 13.332V10.6654H2.66659V13.332H5.33325ZM5.33325 9.33203V6.66536H2.66659V9.33203H5.33325ZM5.33325 5.33203V2.66536H2.66659V5.33203H5.33325ZM6.66659 9.33203H9.33325V6.66536H6.66659V9.33203ZM2.66659 1.33203H13.3333C14.0666 1.33203 14.6666 1.93203 14.6666 2.66536V13.332C14.6666 14.0654 14.0666 14.6654 13.3333 14.6654H2.66659C1.93325 14.6654 1.33325 14.0654 1.33325 13.332V2.66536C1.33325 1.93203 1.93325 1.33203 2.66659 1.33203Z" fill="currentColor" fill-opacity="0.88"/>
</g>
</svg>
