<svg width="15" height="12" viewBox="0 0 15 12" fill="none" xmlns="http://www.w3.org/2000/svg">
<g id="Group">
<path id="Vector" d="M8.33333 3.33464V4.66797V6.0013V7.33464H11V6.0013V4.66797V3.33464H12.3333L11 2.0013L9.66667 0.667969L8.33333 2.0013L7 3.33464H8.33333Z" fill="currentColor"/>
<path id="Vector_2" d="M11.6666 4.66797V6.0013H12.7333L11.6666 10.0013H2.99992L4.06659 6.0013H7.66659V4.66797H3.06659L1.66659 10.0013V3.33464H5.66659L6.13325 2.86797L6.99992 2.0013L5.66659 0.667969H1.66659C0.933252 0.667969 0.333252 1.26797 0.333252 2.0013V10.0013C0.333252 10.7346 0.933252 11.3346 1.66659 11.3346H11.6666C12.2666 11.3346 12.7999 10.9346 12.9333 10.3346L14.4666 4.66797H11.6666Z" fill="currentColor"/>
</g>
</svg>
