<svg xmlns="http://www.w3.org/2000/svg" width="16" height="16" viewBox="0 0 16 16" fill="none">
    <path d="M8.37609 4.26555H7.62452C7.55577 4.26555 7.49952 4.3218 7.49952 4.39055V8.69211C7.49952 8.73274 7.51827 8.77024 7.55109 8.79368L10.1339 10.6796C10.1901 10.7202 10.2683 10.7093 10.3089 10.6531L10.7558 10.0437C10.798 9.98586 10.7855 9.90774 10.7292 9.86868L8.50109 8.25774V4.39055C8.50109 4.3218 8.44484 4.26555 8.37609 4.26555ZM11.8105 5.44055L14.2605 6.03899C14.3386 6.05774 14.4151 5.99836 14.4151 5.91868L14.4276 3.39524C14.4276 3.29055 14.3073 3.23118 14.2261 3.2968L11.7636 5.22024C11.745 5.23464 11.7308 5.25399 11.7227 5.27609C11.7146 5.29818 11.7129 5.32211 11.7178 5.34512C11.7227 5.36814 11.734 5.3893 11.7504 5.40618C11.7668 5.42306 11.7876 5.43498 11.8105 5.44055ZM14.4308 10.1452L13.5448 9.84055C13.5139 9.82996 13.4801 9.83188 13.4506 9.8459C13.4212 9.85991 13.3983 9.88491 13.387 9.91555C13.3573 9.99524 13.3261 10.0734 13.2933 10.1515C13.0151 10.8093 12.6167 11.4015 12.1073 11.9093C11.6036 12.4146 11.0066 12.8173 10.3495 13.0952C9.66878 13.383 8.93704 13.5308 8.19796 13.5296C7.45109 13.5296 6.72765 13.3843 6.0464 13.0952C5.38927 12.8173 4.7923 12.4146 4.28859 11.9093C3.78077 11.4015 3.38234 10.8093 3.10265 10.1515C2.81642 9.47037 2.66978 8.73874 2.6714 7.99993C2.6714 7.25305 2.81671 6.52805 3.10577 5.8468C3.3839 5.18899 3.78234 4.5968 4.29171 4.08899C4.79543 3.58371 5.3924 3.18095 6.04952 2.90305C6.72765 2.61399 7.45265 2.46868 8.19952 2.46868C8.9464 2.46868 9.66984 2.61399 10.3511 2.90305C11.0082 3.18095 11.6052 3.58371 12.1089 4.08899C12.2683 4.24993 12.4183 4.41711 12.5558 4.59368L13.4901 3.86243C12.2605 2.29055 10.3464 1.27961 8.1964 1.28118C4.45265 1.28274 1.4464 4.32336 1.4839 8.06868C1.5214 11.7484 4.51359 14.7187 8.19952 14.7187C11.098 14.7187 13.5667 12.8812 14.5073 10.3077C14.5308 10.2421 14.4964 10.1687 14.4308 10.1452Z" fill="currentColor"/>
</svg>
