<svg width="18" height="19" viewBox="0 0 18 19" fill="none" xmlns="http://www.w3.org/2000/svg">
  <path d="M9 1.625C4.65117 1.625 1.125 5.15117 1.125 9.5C1.125 13.8488 4.65117 17.375 9 17.375C13.3488 17.375 16.875 13.8488 16.875 9.5C16.875 5.15117 13.3488 1.625 9 1.625ZM9 16.0391C5.38945 16.0391 2.46094 13.1105 2.46094 9.5C2.46094 5.88945 5.38945 2.96094 9 2.96094C12.6105 2.96094 15.5391 5.88945 15.5391 9.5C15.5391 13.1105 12.6105 16.0391 9 16.0391Z" fill="currentColor"/>
  <path d="M8.15625 6.40625C8.15625 6.63003 8.24514 6.84464 8.40338 7.00287C8.56161 7.16111 8.77622 7.25 9 7.25C9.22378 7.25 9.43839 7.16111 9.59662 7.00287C9.75485 6.84464 9.84375 6.63003 9.84375 6.40625C9.84375 6.18247 9.75485 5.96786 9.59662 5.80963C9.43839 5.65139 9.22378 5.5625 9 5.5625C8.77622 5.5625 8.56161 5.65139 8.40338 5.80963C8.24514 5.96786 8.15625 6.18247 8.15625 6.40625ZM9.42188 8.375H8.57812C8.50078 8.375 8.4375 8.43828 8.4375 8.51562V13.2969C8.4375 13.3742 8.50078 13.4375 8.57812 13.4375H9.42188C9.49922 13.4375 9.5625 13.3742 9.5625 13.2969V8.51562C9.5625 8.43828 9.49922 8.375 9.42188 8.375Z" fill="currentColor"/>
</svg>