<svg width="14" height="14" viewBox="0 0 14 14" fill="none" xmlns="http://www.w3.org/2000/svg">
<path d="M9.8987 2.98426V1.92742C9.8987 1.83582 9.79343 1.78523 9.72233 1.84129L3.55905 6.65516C3.50669 6.69588 3.46431 6.74802 3.43517 6.80762C3.40602 6.86721 3.39087 6.93267 3.39087 6.999C3.39087 7.06534 3.40602 7.1308 3.43517 7.19039C3.46431 7.24998 3.50669 7.30213 3.55905 7.34285L9.72233 12.1567C9.7948 12.2128 9.8987 12.1622 9.8987 12.0706V11.0137C9.8987 10.9468 9.86726 10.8825 9.8153 10.8415L4.89343 6.99969L9.8153 3.15652C9.86726 3.11551 9.8987 3.05125 9.8987 2.98426Z" fill="currentColor" fill-opacity="0.88"/>
</svg>
