<svg width="16" height="16" viewBox="0 0 16 16" fill="none" xmlns="http://www.w3.org/2000/svg">
<g clip-path="url(#clip0_6538_670)">
<path d="M8.66669 9.33331L6.66669 7.33331M10.0069 2.33331V1.33331M12.6331 3.37375L13.3403 2.66665M12.6331 8.66665L13.3403 9.37375M7.34026 3.37375L6.63315 2.66665M13.6736 5.99998H14.6736M4.0876 13.9124L10.2458 7.75423C10.5098 7.49022 10.6418 7.35821 10.6912 7.20599C10.7348 7.0721 10.7348 6.92786 10.6912 6.79397C10.6418 6.64175 10.5098 6.50974 10.2458 6.24573L9.75427 5.75423C9.49026 5.49022 9.35825 5.35821 9.20603 5.30875C9.07214 5.26525 8.92791 5.26525 8.79401 5.30875C8.64179 5.35821 8.50978 5.49022 8.24577 5.75423L2.0876 11.9124C1.82359 12.1764 1.69158 12.3084 1.64213 12.4606C1.59862 12.5945 1.59862 12.7388 1.64213 12.8727C1.69158 13.0249 1.82359 13.1569 2.0876 13.4209L2.57911 13.9124C2.84312 14.1764 2.97512 14.3084 3.12734 14.3579C3.26124 14.4014 3.40547 14.4014 3.53937 14.3579C3.69158 14.3084 3.82359 14.1764 4.0876 13.9124Z" stroke="currentColor" stroke-width="1.5" stroke-linecap="round" stroke-linejoin="round"/>
</g>
<defs>
<clipPath id="clip0_6538_670">
<rect width="16" height="16" fill="transparent"/>
</clipPath>
</defs>
</svg>
