<svg width="16" height="16" viewBox="0 0 16 16" fill="none" xmlns="http://www.w3.org/2000/svg">
<g id="more">
<path id="Vector" d="M4.00008 6.66669C3.26675 6.66669 2.66675 7.26669 2.66675 8.00002C2.66675 8.73335 3.26675 9.33335 4.00008 9.33335C4.73341 9.33335 5.33341 8.73335 5.33341 8.00002C5.33341 7.26669 4.73341 6.66669 4.00008 6.66669ZM12.0001 6.66669C11.2667 6.66669 10.6667 7.26669 10.6667 8.00002C10.6667 8.73335 11.2667 9.33335 12.0001 9.33335C12.7334 9.33335 13.3334 8.73335 13.3334 8.00002C13.3334 7.26669 12.7334 6.66669 12.0001 6.66669ZM8.00008 6.66669C7.26675 6.66669 6.66675 7.26669 6.66675 8.00002C6.66675 8.73335 7.26675 9.33335 8.00008 9.33335C8.73341 9.33335 9.33341 8.73335 9.33341 8.00002C9.33341 7.26669 8.73341 6.66669 8.00008 6.66669Z" fill="currentColor" fill-opacity="0.88"/>
</g>
</svg>
