<svg width="16" height="16" viewBox="0 0 16 16" fill="currentColor" xmlns="http://www.w3.org/2000/svg">
<path d="M2.6514 10.1875C3.01855 10.1875 3.39086 10.3035 3.75004 10.543C4.10935 10.7826 4.37347 11.0965 4.47953 11.4854C4.58369 11.8678 4.50518 12.2128 4.39847 12.4619C4.36712 12.5351 4.32981 12.6027 4.29301 12.666C4.33002 12.7296 4.36696 12.7976 4.39847 12.8711C4.50529 13.1204 4.58393 13.4659 4.47953 13.8486C4.37342 14.2375 4.10947 14.5514 3.75004 14.791C3.39086 15.0305 3.01856 15.1455 2.6514 15.1455C2.2899 15.1455 1.98515 15.0341 1.75297 14.9014C1.52371 14.7703 1.35145 14.6118 1.23929 14.4922C1.18206 14.4311 1.13692 14.3758 1.10453 14.334C1.0884 14.3132 1.07469 14.2955 1.06449 14.2813C1.05948 14.2743 1.05539 14.2679 1.05179 14.2627C1.04998 14.2601 1.04836 14.257 1.04691 14.2549C1.04622 14.2539 1.04557 14.2529 1.04496 14.252L1.04301 14.25C1.04301 14.2496 1.05447 14.2414 1.66703 13.833L1.04301 14.25C0.813477 13.9054 0.906492 13.4387 1.25101 13.209C1.59518 12.9797 2.06002 13.0726 2.29008 13.416L2.33402 13.4658C2.37799 13.5127 2.43495 13.563 2.49711 13.5986C2.55654 13.6326 2.6067 13.6455 2.6514 13.6455C2.69048 13.6455 2.77724 13.6368 2.91801 13.543C2.97076 13.5078 3.00015 13.4784 3.01762 13.46C3.01156 13.4462 3.00226 13.4324 2.9932 13.417H2.66703C2.25292 13.417 1.91719 13.0811 1.91703 12.667C1.91703 12.2528 2.25282 11.917 2.66703 11.917H2.9932C3.00239 11.9013 3.01149 11.887 3.01762 11.8731C3.00015 11.8546 2.97041 11.826 2.91801 11.791C2.77724 11.6972 2.69047 11.6875 2.6514 11.6875C2.60671 11.6875 2.55654 11.7004 2.49711 11.7344C2.43489 11.77 2.37803 11.8203 2.33402 11.8672C2.31324 11.8894 2.29801 11.9077 2.29008 11.918C2.28638 11.9228 2.28422 11.9258 2.28422 11.9258C2.0522 12.2623 1.59234 12.3516 1.25101 12.124C0.906421 11.8943 0.813277 11.4286 1.04301 11.084L1.64554 11.4854C1.05086 11.0889 1.04291 11.0844 1.04301 11.084L1.04398 11.083L1.04496 11.0811C1.04553 11.0802 1.04627 11.0791 1.04691 11.0781C1.04832 11.0761 1.05005 11.0738 1.05179 11.0713C1.05537 11.0661 1.05949 11.0597 1.06449 11.0527C1.07473 11.0384 1.08832 11.02 1.10453 10.999C1.13695 10.9572 1.18199 10.902 1.23929 10.8408C1.3514 10.7212 1.52387 10.5636 1.75297 10.4326C1.98515 10.2999 2.28991 10.1875 2.6514 10.1875Z" fill="currentColor"/>
<path d="M14 11.917C14.4141 11.9172 14.75 12.2529 14.75 12.667C14.7499 13.0809 14.414 13.4168 14 13.417H6.66703C6.25292 13.417 5.91719 13.0811 5.91703 12.667C5.91703 12.2528 6.25282 11.917 6.66703 11.917H14Z" fill="currentColor"/>
<path d="M2.66703 5.25001C2.71479 5.25003 2.7614 5.25512 2.80668 5.26368C2.80956 5.26423 2.81259 5.26407 2.81547 5.26466C2.82751 5.26708 2.8388 5.2724 2.85062 5.2754C2.88528 5.28419 2.91999 5.29297 2.95316 5.30665C2.98187 5.31853 3.00841 5.3344 3.03519 5.34962C3.05078 5.35843 3.06708 5.36601 3.08207 5.37598C3.1076 5.39301 3.13017 5.41365 3.15336 5.4336C3.20398 5.47715 3.2522 5.5257 3.29105 5.58399C3.31585 5.6212 3.33522 5.66062 3.35258 5.7002C3.35433 5.7042 3.35675 5.70789 3.35844 5.71192C3.36639 5.73098 3.3707 5.75109 3.37699 5.77051C3.40044 5.84317 3.41703 5.91955 3.41703 6.00001V8.25001H3.66703C4.08105 8.25024 4.41703 8.58594 4.41703 9.00001C4.41703 9.41408 4.08105 9.74978 3.66703 9.75001H1.66703C1.25282 9.75001 0.917029 9.41422 0.917029 9.00001C0.91703 8.5858 1.25282 8.25001 1.66703 8.25001H1.91703V7.3711C1.60077 7.48373 1.23781 7.37481 1.04301 7.08301C0.813275 6.73842 0.90649 6.27278 1.25101 6.04298L2.24222 5.38087C2.24594 5.37831 2.25018 5.37652 2.25394 5.37403C2.28962 5.3505 2.32645 5.3302 2.36429 5.31348C2.36922 5.31131 2.37397 5.30871 2.37894 5.30665C2.41395 5.29208 2.45025 5.2824 2.48637 5.27344C2.49653 5.27093 2.50632 5.26675 2.51664 5.26466C2.52567 5.26282 2.53492 5.26225 2.54398 5.26075C2.58392 5.25417 2.62523 5.25001 2.66703 5.25001Z" fill="currentColor"/>
<path d="M14 7.25001C14.4141 7.25024 14.75 7.58594 14.75 8.00001C14.75 8.41408 14.4141 8.74978 14 8.75001H6.66703C6.25282 8.75001 5.91703 8.41422 5.91703 8.00001C5.91703 7.58579 6.25282 7.25001 6.66703 7.25001H14Z" fill="currentColor"/>
<path d="M1.98734 0.589851C2.24355 0.493854 2.5924 0.422339 2.97367 0.517585C3.37157 0.617208 3.70628 0.873326 3.95805 1.25098C4.31397 1.78536 4.23135 2.35122 4.03324 2.77247C3.95229 2.94445 3.8459 3.1047 3.73051 3.25294C4.1148 3.28537 4.41703 3.60733 4.41703 4.00001C4.41703 4.41408 4.08105 4.74978 3.66703 4.75001H1.66703C1.65239 4.75001 1.63752 4.74791 1.62308 4.74708C1.61656 4.7467 1.61006 4.74665 1.60355 4.7461C1.56642 4.743 1.53056 4.73586 1.49515 4.72755C1.46958 4.72154 1.44477 4.71373 1.41996 4.70509C1.39741 4.6972 1.37506 4.68962 1.35355 4.67969C1.33192 4.66978 1.31172 4.65749 1.29105 4.64551C1.27089 4.63376 1.25039 4.62291 1.23148 4.60938C1.20835 4.59292 1.18736 4.57391 1.16605 4.55469C1.15216 4.54215 1.13795 4.53015 1.12504 4.51661C1.08419 4.47376 1.04641 4.42672 1.01566 4.37305C0.982122 4.31436 0.959734 4.25189 0.943396 4.18946C0.935859 4.16061 0.927942 4.13167 0.923865 4.10157C0.922981 4.09504 0.921645 4.08858 0.920936 4.08204C0.918006 4.0551 0.917029 4.02772 0.917029 4.00001C0.917029 3.98523 0.91814 3.97062 0.918982 3.95606C0.919339 3.95019 0.919466 3.94434 0.919959 3.93848C0.923221 3.89836 0.93016 3.85939 0.93949 3.8213C0.944512 3.80096 0.952324 3.78158 0.959021 3.76173C0.967742 3.73582 0.975956 3.71011 0.987342 3.68555C0.996528 3.6657 1.00767 3.64698 1.01859 3.62794C1.03082 3.60668 1.04249 3.58531 1.05668 3.56544C1.07181 3.54419 1.08904 3.52461 1.10648 3.50489C1.12194 3.48742 1.13733 3.47007 1.15433 3.45411C1.18071 3.42941 1.2079 3.40489 1.23832 3.3838C1.24728 3.37755 1.25739 3.37305 1.26664 3.36719C1.27596 3.36132 1.2853 3.35514 1.29496 3.34962C1.2954 3.34933 1.29563 3.34841 1.29691 3.34766C1.29976 3.34603 1.30506 3.34369 1.31156 3.33985C1.32509 3.33184 1.34587 3.31849 1.37308 3.30176C1.42791 3.26807 1.50778 3.21861 1.6016 3.15528C1.79224 3.0266 2.03028 2.85139 2.2432 2.65626C2.46612 2.45191 2.61214 2.269 2.67582 2.1338C2.69047 2.10262 2.69513 2.08026 2.69828 2.06739C2.65405 2.0044 2.62319 1.98021 2.61039 1.97266C2.60713 1.97227 2.5787 1.96982 2.51371 1.99415C2.43691 2.02295 2.35416 2.07377 2.28324 2.12696C2.25035 2.15165 2.22487 2.17346 2.20902 2.18751C2.20392 2.19203 2.19904 2.19477 2.19633 2.19727C1.90354 2.48959 1.42954 2.48959 1.13676 2.19727C0.843918 1.90438 0.843883 1.4296 1.13676 1.13673L1.14652 1.12696C1.15092 1.12268 1.15669 1.11742 1.16312 1.11134C1.17602 1.09914 1.19312 1.08289 1.2139 1.06446C1.25524 1.02783 1.31303 0.979867 1.38383 0.926765C1.52122 0.823724 1.73087 0.686028 1.98734 0.589851Z" fill="currentColor"/>
<path d="M14 2.58301C14.414 2.58324 14.7499 2.91908 14.75 3.33301C14.75 3.74709 14.4141 4.08279 14 4.08301H6.66703C6.25282 4.08301 5.91703 3.74723 5.91703 3.33301C5.9172 2.91894 6.25292 2.58301 6.66703 2.58301H14Z" fill="currentColor"/>
<path d="M2.1973 2.19825L2.19437 2.2002L2.1934 2.20216C2.19412 2.20147 2.19488 2.19861 2.19633 2.19727L2.1973 2.19825Z" fill="currentColor"/>
</svg>
