<svg width="16" height="16" viewBox="0 0 16 16" fill="none" xmlns="http://www.w3.org/2000/svg">
<g id="pimcore-main-icon-document">
<path id="Vector" d="M14.24 4.42667L9.97334 0.16C9.86667 0.0533333 9.76001 0 9.60001 0H3.20001C2.29334 0 1.60001 0.693333 1.60001 1.6V14.4C1.60001 15.3067 2.29334 16 3.20001 16H12.8C13.7067 16 14.4 15.3067 14.4 14.4V4.8C14.4 4.64 14.3467 4.53333 14.24 4.42667ZM12.5867 4.26667H10.1333V1.81333L12.5867 4.26667ZM12.8 14.9333H3.20001C2.88001 14.9333 2.66667 14.72 2.66667 14.4V1.6C2.66667 1.28 2.88001 1.06667 3.20001 1.06667H9.06667V4.8C9.06667 5.12 9.28001 5.33333 9.60001 5.33333H13.3333V14.4C13.3333 14.72 13.12 14.9333 12.8 14.9333ZM11.2 8.53333H4.80001C4.48001 8.53333 4.26667 8.32 4.26667 8C4.26667 7.68 4.48001 7.46667 4.80001 7.46667H11.2C11.52 7.46667 11.7333 7.68 11.7333 8C11.7333 8.32 11.52 8.53333 11.2 8.53333ZM11.2 10.6667H4.80001C4.48001 10.6667 4.26667 10.4533 4.26667 10.1333C4.26667 9.81333 4.48001 9.6 4.80001 9.6H11.2C11.52 9.6 11.7333 9.81333 11.7333 10.1333C11.7333 10.4533 11.52 10.6667 11.2 10.6667ZM8.00001 12.8H4.80001C4.48001 12.8 4.26667 12.5867 4.26667 12.2667C4.26667 11.9467 4.48001 11.7333 4.80001 11.7333H8.00001C8.32001 11.7333 8.53334 11.9467 8.53334 12.2667C8.53334 12.5867 8.32001 12.8 8.00001 12.8Z" fill="currentColor" fill-opacity="0.6"/>
</g>
</svg>
