<svg width="16" height="16" viewBox="0 0 16 16" fill="none" xmlns="http://www.w3.org/2000/svg">
<g id="pimcore-main-icon-object" clip-path="url(#clip0_3675_259026)">
<path id="Vector" d="M14.9333 3.62667L8.53332 0.106667C8.37332 0.0533333 8.15999 0 7.99999 0C7.83999 0 7.62666 0.0533333 7.46666 0.106667L1.06666 3.62667C0.746659 3.84 0.533325 4.16 0.533325 4.58667V11.4667C0.533325 11.84 0.746659 12.2133 1.06666 12.4267L7.46666 15.8933C7.62666 16 7.78666 16 7.99999 16C8.21332 16 8.37332 15.9467 8.53332 15.8933L14.9333 12.4267C15.2533 12.2133 15.4667 11.8933 15.4667 11.4667V4.58667C15.4667 4.16 15.2533 3.78667 14.9333 3.62667ZM7.99999 1.06667L13.8133 4.21333L7.99999 7.41333L2.18666 4.21333L7.99999 1.06667ZM1.59999 5.12L7.46666 8.32V14.6667L1.59999 11.4667V5.12ZM8.53332 14.6667V8.32L14.4 5.12V11.4667L8.53332 14.6667Z" fill="currentColor" fill-opacity="0.6"/>
</g>
<defs>
<clipPath id="clip0_3675_259026">
<rect width="16" height="16" fill="white"/>
</clipPath>
</defs>
</svg>
