<svg width="16" height="16" viewBox="0 0 16 16" fill="none" xmlns="http://www.w3.org/2000/svg">
<g id="pimcore-main-icon-asset">
<path id="Vector" d="M14.4 14.4018H1.59999C1.01333 14.4018 0.533325 13.9218 0.533325 13.3352V3.73516C0.533325 3.14849 1.01333 2.66849 1.59999 2.66849H4.05332L6.02666 0.695156C6.13332 0.58849 6.23999 0.535156 6.39999 0.535156H9.59999C9.75999 0.535156 9.86666 0.58849 9.97333 0.695156L11.9467 2.66849H14.4C14.9867 2.66849 15.4667 3.14849 15.4667 3.73516V13.3352C15.4667 13.9218 14.9867 14.4018 14.4 14.4018ZM2.02666 13.3352H13.9733C14.1867 13.3352 14.4 13.1218 14.4 12.9085V4.16182C14.4 3.94849 14.1867 3.73516 13.9733 3.73516H11.7333C11.5733 3.73516 11.4667 3.68182 11.36 3.57516L9.49332 1.70849C9.43999 1.65516 9.33332 1.60182 9.27999 1.60182H6.77332C6.66666 1.60182 6.61332 1.65516 6.55999 1.70849L4.63999 3.57516C4.53332 3.68182 4.42666 3.73516 4.26666 3.73516H1.86666C1.70666 3.73516 1.59999 3.84182 1.59999 4.00182V12.9085C1.59999 13.1218 1.81333 13.3352 2.02666 13.3352Z" fill="currentColor" fill-opacity="0.6"/>
<path id="Vector_2" d="M8 11.7323C5.92 11.7323 4.26666 10.079 4.26666 7.99896C4.26666 5.91896 5.92 4.26562 8 4.26562C10.08 4.26562 11.7333 5.91896 11.7333 7.99896C11.7333 10.079 10.08 11.7323 8 11.7323ZM8 5.33229C6.50666 5.33229 5.33333 6.50563 5.33333 7.99896C5.33333 9.49229 6.50666 10.6656 8 10.6656C9.49333 10.6656 10.6667 9.49229 10.6667 7.99896C10.6667 6.50563 9.49333 5.33229 8 5.33229Z" fill="currentColor" fill-opacity="0.6"/>
</g>
</svg>
