<svg width="16" height="16" viewBox="0 0 16 16" fill="none" xmlns="http://www.w3.org/2000/svg">
    <path d="M8.73511 2.4305C8.94302 1.94536 9.04698 1.7028 9.21497 1.59261C9.36187 1.49626 9.54087 1.46179 9.71305 1.49669C9.90995 1.53661 10.0966 1.72321 10.4698 2.09643L13.8985 5.52519C14.2718 5.89841 14.4584 6.08502 14.4983 6.28191C14.5332 6.45409 14.4987 6.63309 14.4024 6.78C14.2922 6.94799 14.0496 7.05194 13.5645 7.25986L11.9016 7.97253C11.831 8.00277 11.7957 8.01788 11.7627 8.03678C11.7333 8.05356 11.7052 8.07256 11.6787 8.09361C11.6489 8.1173 11.6218 8.14444 11.5675 8.19871L10.5269 9.2393C10.442 9.32418 10.3996 9.36662 10.3659 9.41498C10.3359 9.4579 10.3111 9.50419 10.292 9.5529C10.2705 9.60779 10.2587 9.66664 10.2352 9.78435L9.7466 12.2273C9.61963 12.8622 9.55614 13.1796 9.38878 13.3281C9.24297 13.4575 9.04784 13.5166 8.85476 13.4898C8.63312 13.4591 8.40422 13.2302 7.9464 12.7724L3.22258 8.04856C2.76477 7.59075 2.53586 7.36185 2.50514 7.14021C2.47837 6.94713 2.53745 6.752 2.66683 6.60619C2.81533 6.43882 3.13277 6.37534 3.76764 6.24836L6.21061 5.75977C6.32832 5.73622 6.38718 5.72445 6.44206 5.70293C6.49078 5.68382 6.53707 5.65904 6.57999 5.62911C6.62834 5.59538 6.67079 5.55294 6.75567 5.46806L7.79626 4.42747C7.85053 4.3732 7.87767 4.34606 7.90136 4.31624C7.9224 4.28974 7.9414 4.26168 7.95819 4.23229C7.97708 4.19922 7.9922 4.16395 8.02243 4.0934L8.73511 2.4305Z" fill="currentColor"/>
    <path d="M5.58447 10.4105L1.81323 14.1817M7.79626 4.42747L6.75567 5.46806C6.67079 5.55294 6.62834 5.59538 6.57999 5.62911C6.53707 5.65904 6.49078 5.68382 6.44206 5.70293C6.38718 5.72445 6.32832 5.73622 6.21061 5.75977L3.76764 6.24836C3.13277 6.37534 2.81533 6.43882 2.66683 6.60619C2.53745 6.752 2.47837 6.94713 2.50514 7.14021C2.53586 7.36185 2.76477 7.59075 3.22258 8.04856L7.9464 12.7724C8.40422 13.2302 8.63312 13.4591 8.85476 13.4898C9.04784 13.5166 9.24297 13.4575 9.38878 13.3281C9.55614 13.1796 9.61963 12.8622 9.7466 12.2273L10.2352 9.78435C10.2587 9.66664 10.2705 9.60779 10.292 9.5529C10.3111 9.50419 10.3359 9.4579 10.3659 9.41498C10.3996 9.36662 10.442 9.32418 10.5269 9.2393L11.5675 8.19871C11.6218 8.14444 11.6489 8.1173 11.6787 8.09361C11.7052 8.07256 11.7333 8.05356 11.7627 8.03678C11.7957 8.01788 11.831 8.00277 11.9016 7.97253L13.5645 7.25986C14.0496 7.05194 14.2922 6.94799 14.4024 6.78C14.4987 6.63309 14.5332 6.45409 14.4983 6.28191C14.4584 6.08502 14.2718 5.89841 13.8985 5.52519L10.4698 2.09643C10.0966 1.72321 9.90995 1.53661 9.71305 1.49669C9.54087 1.46179 9.36187 1.49626 9.21497 1.59261C9.04698 1.7028 8.94302 1.94536 8.73511 2.4305L8.02243 4.0934C7.9922 4.16395 7.97708 4.19922 7.95819 4.23229C7.9414 4.26168 7.9224 4.28974 7.90136 4.31624C7.87767 4.34606 7.85053 4.3732 7.79626 4.42747Z" stroke="#531DAB" stroke-width="1.5" stroke-linecap="round" stroke-linejoin="round"/>
</svg>