<svg width="19" height="18" viewBox="0 0 19 18" fill="none" xmlns="http://www.w3.org/2000/svg">
  <g clip-path="url(#clip0_1396_15473)">
    <path d="M13.7 4.8C12.65 3.675 11.15 3 9.5 3C6.2 3 3.5 5.7 3.5 9C3.5 12.3 6.2 15 9.5 15C12.275 15 14.6 13.125 15.275 10.5H13.7C13.1 12.225 11.45 13.5 9.5 13.5C7.025 13.5 5 11.475 5 9C5 6.525 7.025 4.5 9.5 4.5C10.775 4.5 11.825 5.025 12.65 5.85L10.25 8.25H15.5V3L13.7 4.8Z" fill="currentColor"/>
  </g>
  <defs>
    <clipPath id="clip0_1396_15473">
      <rect width="18" height="18" fill="white" transform="translate(0.5)"/>
    </clipPath>
  </defs>
</svg>