<svg width="12" height="12" viewBox="0 0 12 12" fill="none" xmlns="http://www.w3.org/2000/svg">
  <path d="M8.97303 5.70478L3.69023 1.57861C3.67643 1.56774 3.65984 1.56099 3.64237 1.55912C3.6249 1.55726 3.60726 1.56036 3.59147 1.56807C3.57569 1.57578 3.5624 1.58778 3.55312 1.60271C3.54385 1.61763 3.53898 1.63487 3.53906 1.65244V2.55829C3.53906 2.61572 3.56602 2.67079 3.61055 2.70595L7.82929 6.00009L3.61055 9.29423C3.56484 9.32939 3.53906 9.38447 3.53906 9.44189V10.3477C3.53906 10.4263 3.6293 10.4696 3.69023 10.4216L8.97303 6.2954C9.01793 6.26038 9.05426 6.21558 9.07924 6.1644C9.10422 6.11323 9.11721 6.05704 9.11721 6.00009C9.11721 5.94315 9.10422 5.88695 9.07924 5.83578C9.05426 5.78461 9.01793 5.7398 8.97303 5.70478Z" fill="currentColor" fill-opacity="0.88"/>
</svg>