<svg xmlns="http://www.w3.org/2000/svg" width="17" height="16" viewBox="0 0 17 16" fill="none">
<path d="M14.9502 9.775L13.9268 8.9C13.9752 8.60313 14.0002 8.3 14.0002 7.99688C14.0002 7.69375 13.9752 7.39063 13.9268 7.09375L14.9502 6.21875C15.0274 6.15267 15.0826 6.06465 15.1086 5.9664C15.1346 5.86816 15.13 5.76434 15.0955 5.66875L15.0814 5.62813C14.7997 4.84067 14.3778 4.11068 13.8361 3.47344L13.808 3.44063C13.7423 3.36336 13.6547 3.30782 13.5568 3.28132C13.4589 3.25483 13.3553 3.25861 13.2596 3.29219L11.9893 3.74375C11.5205 3.35938 10.9971 3.05625 10.4314 2.84375L10.1861 1.51562C10.1676 1.41569 10.1192 1.32375 10.0471 1.25203C9.97514 1.1803 9.88302 1.13218 9.78301 1.11406L9.74082 1.10625C8.92676 0.959375 8.07051 0.959375 7.25645 1.10625L7.21426 1.11406C7.11426 1.13218 7.02213 1.1803 6.95013 1.25203C6.87812 1.32375 6.82964 1.41569 6.81114 1.51562L6.56426 2.85C6.00315 3.06254 5.48062 3.36551 5.01739 3.74688L3.7377 3.29219C3.64202 3.25835 3.53831 3.25442 3.44035 3.28094C3.34239 3.30745 3.25481 3.36315 3.18926 3.44063L3.16114 3.47344C2.62011 4.11113 2.19829 4.841 1.91582 5.62813L1.90176 5.66875C1.83145 5.86406 1.88926 6.08281 2.04707 6.21875L3.08301 7.10313C3.03457 7.39688 3.01114 7.69688 3.01114 7.99531C3.01114 8.29531 3.03457 8.59531 3.08301 8.8875L2.04707 9.77188C1.96988 9.83796 1.91463 9.92598 1.88867 10.0242C1.86272 10.1225 1.86728 10.2263 1.90176 10.3219L1.91582 10.3625C2.19864 11.15 2.61739 11.8766 3.16114 12.5172L3.18926 12.55C3.25497 12.6273 3.34255 12.6828 3.44045 12.7093C3.53836 12.7358 3.64199 12.732 3.7377 12.6984L5.01739 12.2438C5.48301 12.6266 6.00332 12.9297 6.56426 13.1406L6.81114 14.475C6.82964 14.5749 6.87812 14.6669 6.95013 14.7386C7.02213 14.8103 7.11426 14.8584 7.21426 14.8766L7.25645 14.8844C8.07799 15.032 8.91928 15.032 9.74082 14.8844L9.78301 14.8766C9.88302 14.8584 9.97514 14.8103 10.0471 14.7386C10.1192 14.6669 10.1676 14.5749 10.1861 14.475L10.4314 13.1469C10.9968 12.9349 11.5232 12.6308 11.9893 12.2469L13.2596 12.6984C13.3553 12.7323 13.459 12.7362 13.5569 12.7097C13.6549 12.6832 13.7425 12.6275 13.808 12.55L13.8361 12.5172C14.3799 11.875 14.7986 11.15 15.0814 10.3625L15.0955 10.3219C15.1658 10.1297 15.108 9.91094 14.9502 9.775ZM12.8174 7.27813C12.8564 7.51406 12.8768 7.75625 12.8768 7.99844C12.8768 8.24063 12.8564 8.48281 12.8174 8.71875L12.7143 9.34531L13.8814 10.3438C13.7045 10.7514 13.4812 11.1373 13.2158 11.4938L11.7658 10.9797L11.2752 11.3828C10.9018 11.6891 10.4861 11.9297 10.0361 12.0984L9.44082 12.3219L9.16114 13.8375C8.71984 13.8875 8.27431 13.8875 7.83301 13.8375L7.55332 12.3188L6.9627 12.0922C6.51739 11.9234 6.10332 11.6828 5.73301 11.3781L5.24239 10.9734L3.78301 11.4922C3.51739 11.1344 3.29551 10.7484 3.11739 10.3422L4.29707 9.33438L4.19551 8.70938C4.15801 8.47656 4.1377 8.23594 4.1377 7.99844C4.1377 7.75938 4.15645 7.52031 4.19551 7.2875L4.29707 6.6625L3.11739 5.65469C3.29395 5.24688 3.51739 4.8625 3.78301 4.50469L5.24239 5.02344L5.73301 4.61875C6.10332 4.31406 6.51739 4.07344 6.9627 3.90469L7.55489 3.68125L7.83457 2.1625C8.27364 2.1125 8.72207 2.1125 9.1627 2.1625L9.44239 3.67813L10.0377 3.90156C10.4861 4.07031 10.9033 4.31094 11.2768 4.61719L11.7674 5.02031L13.2174 4.50625C13.483 4.86406 13.7049 5.25 13.883 5.65625L12.7158 6.65469L12.8174 7.27813ZM8.5002 5.09219C6.98145 5.09219 5.7502 6.32344 5.7502 7.84219C5.7502 9.36094 6.98145 10.5922 8.5002 10.5922C10.0189 10.5922 11.2502 9.36094 11.2502 7.84219C11.2502 6.32344 10.0189 5.09219 8.5002 5.09219ZM9.7377 9.07969C9.57539 9.24247 9.3825 9.37154 9.17012 9.4595C8.95774 9.54745 8.73007 9.59255 8.5002 9.59219C8.03301 9.59219 7.59395 9.40938 7.2627 9.07969C7.09992 8.91738 6.97084 8.72449 6.88289 8.51211C6.79494 8.29973 6.74984 8.07206 6.7502 7.84219C6.7502 7.375 6.93301 6.93594 7.2627 6.60469C7.59395 6.27344 8.03301 6.09219 8.5002 6.09219C8.96739 6.09219 9.40645 6.27344 9.7377 6.60469C9.90047 6.767 10.0296 6.95989 10.1175 7.17227C10.2055 7.38465 10.2506 7.61232 10.2502 7.84219C10.2502 8.30938 10.0674 8.74844 9.7377 9.07969Z" fill="currentColor"/>
</svg>
