<svg width="12" height="12" viewBox="0 0 12 12" fill="none" xmlns="http://www.w3.org/2000/svg">
<path d="M5.65101 10.8072C5.7617 10.8718 5.81705 10.9041 5.89516 10.9208C5.95578 10.9338 6.04422 10.9338 6.10484 10.9208C6.18295 10.9041 6.2383 10.8718 6.349 10.8072C7.32302 10.239 10 8.45401 10 5.99979V4.09979C10 3.56284 10 3.29437 9.91723 3.10379C9.83311 2.91009 9.74929 2.80705 9.57678 2.68524C9.40704 2.5654 9.07431 2.4962 8.40885 2.3578C7.6754 2.20526 7.11214 1.92981 6.59719 1.53145C6.35025 1.34042 6.22679 1.24491 6.13017 1.21886C6.02822 1.19137 5.97178 1.19137 5.86983 1.21886C5.77321 1.24491 5.64975 1.34042 5.40281 1.53145C4.88786 1.92981 4.3246 2.20526 3.59115 2.3578C2.92569 2.4962 2.59296 2.5654 2.42322 2.68524C2.25071 2.80705 2.16689 2.91009 2.08277 3.10379C2 3.29437 2 3.56284 2 4.09979V5.99979C2 8.45401 4.67698 10.239 5.65101 10.8072Z" stroke="currentColor" stroke-opacity="0.65" stroke-linecap="round" stroke-linejoin="round"/>
</svg>
