<svg width="16" height="16" viewBox="0 0 16 16" fill="none" xmlns="http://www.w3.org/2000/svg">
<g id="tag-02" clip-path="url(#clip0_4903_97355)">
<path id="Icon" d="M5.33331 5.33203H5.33998M3.04181 1.95687L1.95815 3.04053C1.72755 3.27113 1.61225 3.38643 1.52979 3.52098C1.45669 3.64028 1.40282 3.77034 1.37015 3.90639C1.33331 4.05984 1.33331 4.2229 1.33331 4.54902L1.33331 6.44837C1.33331 6.7745 1.33331 6.93756 1.37015 7.09101C1.40282 7.22706 1.45669 7.35711 1.52979 7.47641C1.61225 7.61097 1.72755 7.72627 1.95815 7.95687L7.07057 13.0693C7.8626 13.8613 8.25862 14.2573 8.71528 14.4057C9.11696 14.5362 9.54966 14.5362 9.95134 14.4057C10.408 14.2573 10.804 13.8613 11.5961 13.0693L13.0706 11.5948C13.8626 10.8027 14.2586 10.4067 14.407 9.95006C14.5375 9.54838 14.5375 9.11568 14.407 8.714C14.2586 8.25734 13.8626 7.86132 13.0706 7.06929L7.95815 1.95687C7.72755 1.72627 7.61225 1.61097 7.47769 1.52851C7.35839 1.45541 7.22834 1.40153 7.09229 1.36887C6.93884 1.33203 6.77578 1.33203 6.44966 1.33203L4.5503 1.33203C4.22418 1.33203 4.06112 1.33203 3.90767 1.36887C3.77162 1.40153 3.64156 1.45541 3.52227 1.52851C3.38771 1.61097 3.27241 1.72627 3.04181 1.95687ZM5.66665 5.33203C5.66665 5.51613 5.51741 5.66537 5.33331 5.66537C5.14922 5.66537 4.99998 5.51613 4.99998 5.33203C4.99998 5.14794 5.14922 4.9987 5.33331 4.9987C5.51741 4.9987 5.66665 5.14794 5.66665 5.33203Z" stroke="#404655" stroke-width="1.5" stroke-linecap="round" stroke-linejoin="round"/>
</g>
<defs>
<clipPath id="clip0_4903_97355">
<rect width="16" height="16" fill="white"/>
</clipPath>
</defs>
</svg>
