<svg width="17" height="16" viewBox="0 0 17 16" fill="none" xmlns="http://www.w3.org/2000/svg">
<g id="text-input">
<path id="Icon" d="M9.16683 4.66667H3.96683C3.22009 4.66667 2.84672 4.66667 2.56151 4.81199C2.31063 4.93982 2.10665 5.1438 1.97882 5.39468C1.8335 5.67989 1.8335 6.05326 1.8335 6.8V9.2C1.8335 9.94674 1.8335 10.3201 1.97882 10.6053C2.10665 10.8562 2.31063 11.0602 2.56151 11.188C2.84672 11.3333 3.22009 11.3333 3.96683 11.3333H9.16683M11.8335 4.66667H13.0335C13.7802 4.66667 14.1536 4.66667 14.4388 4.81199C14.6897 4.93982 14.8937 5.1438 15.0215 5.39468C15.1668 5.67989 15.1668 6.05326 15.1668 6.8V9.2C15.1668 9.94674 15.1668 10.3201 15.0215 10.6053C14.8937 10.8562 14.6897 11.0602 14.4388 11.188C14.1536 11.3333 13.7802 11.3333 13.0335 11.3333H11.8335M11.8335 14L11.8335 2M13.5002 2.00001L10.1668 2M13.5002 14L10.1668 14" stroke="black" stroke-opacity="0.65" stroke-width="1.4" stroke-linecap="round" stroke-linejoin="round"/>
</g>
</svg>
