<svg width="16" height="16" viewBox="0 0 16 16" fill="none" xmlns="http://www.w3.org/2000/svg">
    <path d="M8.60002 10.0663L6.93335 8.39967C8.06669 7.13301 8.93335 5.59967 9.40002 4.06634H11.3334V2.66634H6.66669V1.33301H5.33335V2.66634H0.666687V3.99967H8.13335C7.66669 5.26634 7.00002 6.53301 6.00002 7.59967C5.40002 6.93301 4.86669 6.13301 4.46669 5.33301H3.13335C3.60002 6.39967 4.26669 7.46634 5.13335 8.39967L1.73335 11.733L2.66669 12.6663L6.00002 9.33301L8.06669 11.3997L8.60002 10.0663ZM12.3334 6.66634H11L8.00002 14.6663H9.33335L10.0667 12.6663H13.2L13.9334 14.6663H15.2667L12.3334 6.66634ZM10.6 11.333L11.6667 8.46634L12.7334 11.333H10.6Z" fill="currentColor"/>
</svg>