<svg width="14" height="12" viewBox="0 0 14 12" fill="none" xmlns="http://www.w3.org/2000/svg">
<path id="Vector" d="M13.25 1H4.125C4.05625 1 4 1.05625 4 1.125V2C4 2.06875 4.05625 2.125 4.125 2.125H13.25C13.3188 2.125 13.375 2.06875 13.375 2V1.125C13.375 1.05625 13.3188 1 13.25 1ZM13.25 5.4375H4.125C4.05625 5.4375 4 5.49375 4 5.5625V6.4375C4 6.50625 4.05625 6.5625 4.125 6.5625H13.25C13.3188 6.5625 13.375 6.50625 13.375 6.4375V5.5625C13.375 5.49375 13.3188 5.4375 13.25 5.4375ZM13.25 9.875H4.125C4.05625 9.875 4 9.93125 4 10V10.875C4 10.9438 4.05625 11 4.125 11H13.25C13.3188 11 13.375 10.9438 13.375 10.875V10C13.375 9.93125 13.3188 9.875 13.25 9.875ZM0.625 1.5625C0.625 1.67741 0.647633 1.79119 0.691605 1.89735C0.735578 2.00351 0.80003 2.09997 0.881282 2.18122C0.962533 2.26247 1.05899 2.32692 1.16515 2.37089C1.27131 2.41487 1.38509 2.4375 1.5 2.4375C1.61491 2.4375 1.72869 2.41487 1.83485 2.37089C1.94101 2.32692 2.03747 2.26247 2.11872 2.18122C2.19997 2.09997 2.26442 2.00351 2.30839 1.89735C2.35237 1.79119 2.375 1.67741 2.375 1.5625C2.375 1.44759 2.35237 1.33381 2.30839 1.22765C2.26442 1.12149 2.19997 1.02503 2.11872 0.943782C2.03747 0.86253 1.94101 0.798078 1.83485 0.754105C1.72869 0.710132 1.61491 0.6875 1.5 0.6875C1.38509 0.6875 1.27131 0.710132 1.16515 0.754105C1.05899 0.798078 0.962533 0.86253 0.881282 0.943782C0.80003 1.02503 0.735578 1.12149 0.691605 1.22765C0.647633 1.33381 0.625 1.44759 0.625 1.5625ZM0.625 6C0.625 6.11491 0.647633 6.22869 0.691605 6.33485C0.735578 6.44101 0.80003 6.53747 0.881282 6.61872C0.962533 6.69997 1.05899 6.76442 1.16515 6.80839C1.27131 6.85237 1.38509 6.875 1.5 6.875C1.61491 6.875 1.72869 6.85237 1.83485 6.80839C1.94101 6.76442 2.03747 6.69997 2.11872 6.61872C2.19997 6.53747 2.26442 6.44101 2.30839 6.33485C2.35237 6.22869 2.375 6.11491 2.375 6C2.375 5.88509 2.35237 5.77131 2.30839 5.66515C2.26442 5.55899 2.19997 5.46253 2.11872 5.38128C2.03747 5.30003 1.94101 5.23558 1.83485 5.19161C1.72869 5.14763 1.61491 5.125 1.5 5.125C1.38509 5.125 1.27131 5.14763 1.16515 5.19161C1.05899 5.23558 0.962533 5.30003 0.881282 5.38128C0.80003 5.46253 0.735578 5.55899 0.691605 5.66515C0.647633 5.77131 0.625 5.88509 0.625 6ZM0.625 10.4375C0.625 10.5524 0.647633 10.6662 0.691605 10.7723C0.735578 10.8785 0.80003 10.975 0.881282 11.0562C0.962533 11.1375 1.05899 11.2019 1.16515 11.2459C1.27131 11.2899 1.38509 11.3125 1.5 11.3125C1.61491 11.3125 1.72869 11.2899 1.83485 11.2459C1.94101 11.2019 2.03747 11.1375 2.11872 11.0562C2.19997 10.975 2.26442 10.8785 2.30839 10.7723C2.35237 10.6662 2.375 10.5524 2.375 10.4375C2.375 10.3226 2.35237 10.2088 2.30839 10.1027C2.26442 9.99649 2.19997 9.90003 2.11872 9.81878C2.03747 9.73753 1.94101 9.67308 1.83485 9.62911C1.72869 9.58513 1.61491 9.5625 1.5 9.5625C1.38509 9.5625 1.27131 9.58513 1.16515 9.62911C1.05899 9.67308 0.962533 9.73753 0.881282 9.81878C0.80003 9.90003 0.735578 9.99649 0.691605 10.1027C0.647633 10.2088 0.625 10.3226 0.625 10.4375Z" fill="currentColor"/>
</svg>
