<svg width="16" height="16" viewBox="0 0 16 16" fill="none" xmlns="http://www.w3.org/2000/svg">
    <path d="M10.9333 9.33398C10.9999 8.86732 10.9999 8.46732 10.9999 8.00065C10.9999 7.53398 10.9333 7.13398 10.9333 6.66732H13.1999C13.3333 7.06732 13.3999 7.53398 13.3999 8.00065C13.3999 8.46732 13.3333 8.93398 13.1999 9.33398M9.73325 13.0673C10.1333 12.334 10.4666 11.534 10.6666 10.6673H12.5999C11.9999 11.734 10.9333 12.6007 9.73325 13.0673ZM9.53325 9.33398H6.46659C6.39992 8.86732 6.33325 8.46732 6.33325 8.00065C6.33325 7.53398 6.39992 7.06732 6.46659 6.66732H9.59992C9.66659 7.06732 9.73325 7.53398 9.73325 8.00065C9.73325 8.46732 9.59992 8.86732 9.53325 9.33398ZM7.99992 13.334C7.46659 12.534 6.99992 11.6673 6.73325 10.6673H9.26659C8.99992 11.6007 8.53325 12.534 7.99992 13.334ZM5.33325 5.33398H3.39992C4.06659 4.20065 5.06659 3.40065 6.26659 2.93398C5.86659 3.73398 5.59992 4.53398 5.33325 5.33398ZM3.39992 10.6673H5.33325C5.59992 11.4673 5.86659 12.334 6.26659 13.0673C5.06659 12.6007 3.99992 11.734 3.39992 10.6673ZM2.86659 9.33398C2.73325 8.93398 2.66659 8.46732 2.66659 8.00065C2.66659 7.53398 2.73325 7.06732 2.86659 6.66732H5.13325C5.06659 7.13398 5.06659 7.53398 5.06659 8.00065C5.06659 8.46732 5.13325 8.86732 5.13325 9.33398M7.99992 2.66732C8.53325 3.46732 8.99992 4.33398 9.26659 5.33398H6.73325C6.99992 4.40065 7.46659 3.46732 7.99992 2.66732ZM12.5999 5.33398H10.6666C10.4666 4.53398 10.1333 3.73398 9.73325 2.93398C10.9333 3.40065 11.9999 4.20065 12.5999 5.33398ZM7.99992 1.33398C4.33325 1.33398 1.33325 4.33398 1.33325 8.00065C1.33325 11.6673 4.33325 14.6673 7.99992 14.6673C11.6666 14.6673 14.6666 11.6673 14.6666 8.00065C14.6666 4.33398 11.6666 1.33398 7.99992 1.33398Z" fill="currentColor"/>
</svg>